M48
;Layer_Color=9474304
;FILE_FORMAT=2:5
INCH,LZ
;TYPE=PLATED
T1F00S00C0.01772
T2F00S00C0.02362
T3F00S00C0.02874
T4F00S00C0.02953
T5F00S00C0.02953
T6F00S00C0.02992
T8F00S00C0.03268
T9F00S00C0.03346
T10F00S00C0.03917
T11F00S00C0.03937
T12F00S00C0.04134
T13F00S00C0.04488
T14F00S00C0.04724
T15F00S00C0.05512
;TYPE=NON_PLATED
T17F00S00C0.10236
T18F00S00C0.13386
%
T01
X00765Y021
X0154Y02024
X00765Y02145
Y0219
T02
X0255Y01175
X0265
T03
X01375Y00125
X01475
X01575
X01675
Y00425
X01575
X01475
X01375
X0215Y0135
X0225
X0235
X0245
X0255
X0265
X0275
X0285
X0295
X0305
Y0195
X0295
X0285
X0275
X0265
X0255
X0245
X0235
X0225
X0215
X0205
X0195
X0185
X0175
X0165
X0155
X0145
X0135
X0125
X0115
Y0135
X0125
X0135
X0145
X0155
X0165
X0175
X0185
X0195
X0205
T04
X01175Y00225
Y00325
X01975Y00525
X023Y01175
X024
X028
X029
X01975Y00625
X011Y01175
X01
X00875Y01
X00775
X0065Y0135
Y0145
X0195Y021
X0205
X00275Y01775
X00175
T05
X01125Y00575
X01225
X02Y0078563
Y0086437
X0045Y0136063
Y0143937
T06
X015Y006
X016
X017
T08
X00725Y001
X00925
Y005
X00725
X0215
X0225
Y009
X0215
X03225Y0135
Y0175
X0185Y01175
Y00875
Y00775
X0145
Y00875
Y01175
X0125
Y00775
X008Y01175
X0115Y021
X0155
X004Y01175
T09
X006439Y01725
X0145Y01075
Y00975
X0185
Y01075
X005061Y01725
T10
X03425Y0075
Y0085
Y0095
X0015Y013
Y014
Y015
T11
X0069705Y0063642
Y0081358
X0095295
Y0063642
T12
X0244055Y0008592
X0264055
X0284055
X0304055
Y0068592
X0284055
X0264055
X0244055
T13
X034Y0145
Y0155
Y0165
X00925
Y0175
Y01925
Y02025
Y0155
Y0145
Y0135
Y02125
X0135Y0225
X0145
X0155
X0165
X0175
X0185
X0195
X0205
X0215
X0225
X0235
X0245
X0255
X0265
X0275
X0285
T14
X0025157Y0044941
X0044842
Y0102028
X0035
X0025157
T15
X0195Y00225
X0215
X0245Y0085
X0265
X0305
X0325
T17
X0408622Y0102953
X0113347
Y0225
X0408622
T18
X0019685Y0019685
X0334646
X0019685Y0216535
X0334646
M30
