G04*
G04 #@! TF.GenerationSoftware,Altium Limited,Altium Designer,20.1.8 (145)*
G04*
G04 Layer_Color=16711935*
%FSLAX25Y25*%
%MOIN*%
G70*
G04*
G04 #@! TF.SameCoordinates,DC33A1B7-073B-4291-B7B0-CC2688F11226*
G04*
G04*
G04 #@! TF.FilePolarity,Negative*
G04*
G01*
G75*
%ADD17R,0.07473X0.07473*%
%ADD18C,0.07473*%
%ADD19R,0.12611X0.14422*%
%ADD20C,0.08280*%
%ADD21R,0.08280X0.08280*%
%ADD22C,0.06430*%
%ADD23R,0.06430X0.06430*%
%ADD24C,0.08044*%
%ADD25R,0.08044X0.08044*%
%ADD26C,0.00800*%
%ADD27C,0.06824*%
%ADD28C,0.06509*%
%ADD29R,0.08044X0.08044*%
%ADD30C,0.05918*%
%ADD31C,0.07690*%
%ADD32C,0.09068*%
%ADD33R,0.09068X0.09068*%
%ADD34R,0.06509X0.06509*%
%ADD35R,0.06902X0.06902*%
%ADD36C,0.06902*%
%ADD37R,0.06548X0.06548*%
%ADD38C,0.06548*%
%ADD39R,0.06509X0.06509*%
%ADD40C,0.07493*%
%ADD41R,0.16351X0.06706*%
%ADD42R,0.06706X0.16351*%
%ADD43C,0.26391*%
D17*
X342500Y95000D02*
D03*
X15000Y150000D02*
D03*
D18*
X342500Y85000D02*
D03*
Y75000D02*
D03*
X15000Y140000D02*
D03*
Y130000D02*
D03*
D19*
X13347Y72500D02*
D03*
X56653D02*
D03*
D20*
X44842Y44941D02*
D03*
X25157D02*
D03*
Y102028D02*
D03*
X35000D02*
D03*
D21*
X44842D02*
D03*
D22*
X115000Y195000D02*
D03*
X125000D02*
D03*
X135000D02*
D03*
X145000D02*
D03*
X155000D02*
D03*
X165000D02*
D03*
X175000D02*
D03*
X185000D02*
D03*
X195000D02*
D03*
X205000D02*
D03*
X215000D02*
D03*
X225000D02*
D03*
X235000D02*
D03*
X245000D02*
D03*
X255000D02*
D03*
X265000D02*
D03*
X275000D02*
D03*
X285000D02*
D03*
X295000D02*
D03*
X305000D02*
D03*
Y135000D02*
D03*
X295000D02*
D03*
X285000D02*
D03*
X275000D02*
D03*
X265000D02*
D03*
X255000D02*
D03*
X245000D02*
D03*
X235000D02*
D03*
X225000D02*
D03*
X215000D02*
D03*
X205000D02*
D03*
X195000D02*
D03*
X185000D02*
D03*
X175000D02*
D03*
X165000D02*
D03*
X155000D02*
D03*
X145000D02*
D03*
X135000D02*
D03*
X125000D02*
D03*
X147500Y12500D02*
D03*
X157500D02*
D03*
X167500D02*
D03*
X137500Y42500D02*
D03*
X147500D02*
D03*
X157500D02*
D03*
X167500D02*
D03*
D23*
X115000Y135000D02*
D03*
X137500Y12500D02*
D03*
D24*
X155000Y225000D02*
D03*
X195000D02*
D03*
X235000D02*
D03*
X275000D02*
D03*
X145000D02*
D03*
X175000D02*
D03*
X165000D02*
D03*
X215000D02*
D03*
X205000D02*
D03*
X245000D02*
D03*
X225000D02*
D03*
X265000D02*
D03*
X255000D02*
D03*
X185000D02*
D03*
X285000D02*
D03*
X340000Y165000D02*
D03*
Y155000D02*
D03*
X92500Y175000D02*
D03*
Y165000D02*
D03*
Y155000D02*
D03*
Y145000D02*
D03*
Y212500D02*
D03*
Y202500D02*
D03*
D25*
X135000Y225000D02*
D03*
D26*
X113347D02*
D03*
Y102953D02*
D03*
X408622Y225000D02*
D03*
Y102953D02*
D03*
D27*
X155000Y210000D02*
D03*
X115000D02*
D03*
X322500Y175000D02*
D03*
Y135000D02*
D03*
X215000Y90000D02*
D03*
Y50000D02*
D03*
X225000Y90000D02*
D03*
Y50000D02*
D03*
X185000Y77500D02*
D03*
X145000D02*
D03*
X185000Y87500D02*
D03*
X145000D02*
D03*
Y117500D02*
D03*
X185000D02*
D03*
X92500Y50000D02*
D03*
Y10000D02*
D03*
X72500D02*
D03*
Y50000D02*
D03*
X125000Y117500D02*
D03*
Y77500D02*
D03*
X40000Y117500D02*
D03*
X80000D02*
D03*
D28*
X195000Y210000D02*
D03*
X205000D02*
D03*
X290000Y117500D02*
D03*
X280000D02*
D03*
X230000D02*
D03*
X240000D02*
D03*
X197500Y52500D02*
D03*
Y62500D02*
D03*
X200000Y86437D02*
D03*
X117500Y22500D02*
D03*
Y32500D02*
D03*
X122500Y57500D02*
D03*
X77500Y100000D02*
D03*
X87500D02*
D03*
X110000Y117500D02*
D03*
X100000D02*
D03*
X65000Y135000D02*
D03*
Y145000D02*
D03*
X45000Y143937D02*
D03*
X27500Y177500D02*
D03*
X17500D02*
D03*
D29*
X340000Y145000D02*
D03*
X92500Y135000D02*
D03*
Y192500D02*
D03*
D30*
X255000Y117500D02*
D03*
X265000D02*
D03*
D31*
X304055Y8592D02*
D03*
Y68592D02*
D03*
X284055Y8592D02*
D03*
Y68592D02*
D03*
X264055Y8592D02*
D03*
Y68592D02*
D03*
X244055Y8592D02*
D03*
Y68592D02*
D03*
D32*
X245000Y85000D02*
D03*
X265000D02*
D03*
X305000D02*
D03*
X325000D02*
D03*
X195000Y22500D02*
D03*
D33*
X215000D02*
D03*
D34*
X200000Y78563D02*
D03*
X45000Y136063D02*
D03*
D35*
X145000Y97500D02*
D03*
X185000Y107500D02*
D03*
X50610Y172500D02*
D03*
D36*
X185000Y97500D02*
D03*
X145000Y107500D02*
D03*
X64390Y172500D02*
D03*
D37*
X150000Y60000D02*
D03*
D38*
X160000D02*
D03*
X170000D02*
D03*
D39*
X112500Y57500D02*
D03*
D40*
X95295Y63642D02*
D03*
X69705D02*
D03*
Y81358D02*
D03*
X95295D02*
D03*
D41*
X62500Y197500D02*
D03*
Y221319D02*
D03*
D42*
X43996Y209311D02*
D03*
D43*
X334646Y19685D02*
D03*
Y216535D02*
D03*
X19685D02*
D03*
Y19685D02*
D03*
M02*
