G04*
G04 #@! TF.GenerationSoftware,Altium Limited,Altium Designer,20.1.8 (145)*
G04*
G04 Layer_Color=65535*
%FSLAX25Y25*%
%MOIN*%
G70*
G04*
G04 #@! TF.SameCoordinates,DC33A1B7-073B-4291-B7B0-CC2688F11226*
G04*
G04*
G04 #@! TF.FilePolarity,Positive*
G04*
G01*
G75*
%ADD10C,0.02362*%
%ADD11C,0.00787*%
%ADD12C,0.00984*%
%ADD13C,0.01000*%
%ADD14C,0.01968*%
%ADD15C,0.00500*%
%ADD16R,0.02487X0.07200*%
G36*
X31400Y123900D02*
D01*
D02*
G37*
G36*
X27400Y131800D02*
D01*
D02*
G37*
G36*
X35200Y140000D02*
D01*
D02*
G37*
G36*
X186400Y66400D02*
D01*
D02*
G37*
G36*
X182400Y74300D02*
D01*
D02*
G37*
G36*
X190200Y82500D02*
D01*
D02*
G37*
D10*
X117677Y147472D02*
G03*
X117677Y147472I-1181J0D01*
G01*
D02*
G03*
X117677Y147472I-1181J0D01*
G01*
X137343Y21004D02*
G03*
X137343Y21004I-1181J0D01*
G01*
D02*
G03*
X137343Y21004I-1181J0D01*
G01*
D11*
X111575Y162539D02*
G03*
X111575Y167461I0J2461D01*
G01*
Y162539D02*
G03*
X111575Y167461I0J2461D01*
G01*
X270000Y119500D02*
G03*
X250000Y119500I-10000J-10000D01*
G01*
Y115500D02*
G03*
X270000Y115500I10000J10000D01*
G01*
X209800Y82500D02*
G03*
X209800Y82500I-9800J0D01*
G01*
X147362Y66000D02*
G03*
X147362Y66000I-2362J0D01*
G01*
X132500Y25000D02*
G03*
X132500Y30000I0J2500D01*
G01*
Y25000D02*
G03*
X132500Y30000I0J2500D01*
G01*
X128698Y62354D02*
G03*
X128640Y52514I-11198J-4854D01*
G01*
X90116Y72500D02*
G03*
X90116Y72500I-7616J0D01*
G01*
X54800Y140000D02*
G03*
X54800Y140000I-9800J0D01*
G01*
X73197Y172500D02*
G03*
X73197Y172500I-15697J0D01*
G01*
X111575Y141713D02*
X308425D01*
Y188287D01*
X111575D02*
X308425D01*
X111575Y167461D02*
Y188287D01*
Y141713D02*
Y162539D01*
Y141713D02*
X308425D01*
Y188287D01*
X111575D02*
X308425D01*
X111575Y167461D02*
Y188287D01*
Y141713D02*
Y162539D01*
X147000Y210000D02*
X150000D01*
X120000D02*
X123000D01*
X123200Y207511D02*
Y212500D01*
X146811Y207500D02*
Y212500D01*
X123200D02*
X146822D01*
X123189Y207500D02*
X146811D01*
X334000Y139000D02*
X346000D01*
Y171000D01*
X334000D02*
X346000D01*
X334000Y139000D02*
Y171000D01*
X322500Y167000D02*
Y170000D01*
Y140000D02*
Y143000D01*
X320000Y143200D02*
X324989D01*
X320000Y166811D02*
X325000D01*
X320000Y143200D02*
Y166822D01*
X325000Y143189D02*
Y166811D01*
X295000Y15954D02*
Y61229D01*
X313110Y15954D02*
Y61229D01*
X295000D02*
X313110D01*
X295000Y15954D02*
X313110D01*
X304055Y13592D02*
Y15954D01*
Y61229D02*
Y63592D01*
X275000Y15954D02*
Y61229D01*
X293110Y15954D02*
Y61229D01*
X275000D02*
X293110D01*
X275000Y15954D02*
X293110D01*
X284055Y13592D02*
Y15954D01*
Y61229D02*
Y63592D01*
X255000Y15954D02*
Y61229D01*
X273110Y15954D02*
Y61229D01*
X255000D02*
X273110D01*
X255000Y15954D02*
X273110D01*
X264055Y13592D02*
Y15954D01*
Y61229D02*
Y63592D01*
X235000Y15954D02*
Y61229D01*
X253110Y15954D02*
Y61229D01*
X235000D02*
X253110D01*
X235000Y15954D02*
X253110D01*
X244055Y13592D02*
Y15954D01*
Y61229D02*
Y63592D01*
X332244Y74764D02*
Y95236D01*
X237756Y74764D02*
Y95236D01*
X332244D01*
X237756Y74764D02*
X332244D01*
X182700Y42000D02*
X224500D01*
X182700Y32400D02*
Y42000D01*
Y1500D02*
X224500D01*
X182700D02*
Y12400D01*
X224500Y1500D02*
Y42000D01*
X182700Y12400D02*
Y32400D01*
Y9500D02*
X224500D01*
X182700D02*
X224500D01*
X182700Y12400D02*
Y32400D01*
Y1500D02*
Y12400D01*
Y32400D02*
Y42000D01*
X215000Y82000D02*
Y85000D01*
Y55000D02*
Y58000D01*
X212500Y58200D02*
X217489D01*
X212500Y81811D02*
X217500D01*
X212500Y58200D02*
Y81822D01*
X217500Y58189D02*
Y81811D01*
X225000Y82000D02*
Y85000D01*
Y55000D02*
Y58000D01*
X222500Y58200D02*
X227489D01*
X222500Y81811D02*
X227500D01*
X222500Y58200D02*
Y81822D01*
X227500Y58189D02*
Y81811D01*
X192900Y78700D02*
X195900D01*
X194400Y77200D02*
Y80200D01*
X177000Y77500D02*
X180000D01*
X150000D02*
X153000D01*
X153200Y75011D02*
Y80000D01*
X176811Y75000D02*
Y80000D01*
X153200D02*
X176822D01*
X153189Y75000D02*
X176811D01*
X177000Y87500D02*
X180000D01*
X150000D02*
X153000D01*
X153200Y85011D02*
Y90000D01*
X176811Y85000D02*
Y90000D01*
X153200D02*
X176822D01*
X153189Y85000D02*
X176811D01*
X159961Y97500D02*
Y101100D01*
X170039D01*
Y93900D02*
Y101100D01*
X159961Y93900D02*
X170039D01*
X159961D02*
Y97500D01*
X169987Y93900D02*
Y101100D01*
X170039Y97500D02*
X180079D01*
X149921D02*
X159961D01*
X170039Y103900D02*
Y107500D01*
X159961Y103900D02*
X170039D01*
X159961D02*
Y111100D01*
X170039D01*
Y107500D02*
Y111100D01*
X160013Y103900D02*
Y111100D01*
X149921Y107500D02*
X159961D01*
X170039D02*
X180079D01*
X150000Y117500D02*
X153000D01*
X177000D02*
X180000D01*
X176800Y115000D02*
Y119989D01*
X153189Y115000D02*
Y120000D01*
X153178Y115000D02*
X176800D01*
X153189Y120000D02*
X176811D01*
X141240Y69528D02*
X178760D01*
X141240Y50512D02*
X178760D01*
X178760Y50492D02*
Y69508D01*
X141240Y50492D02*
Y69508D01*
X132500Y17067D02*
Y25000D01*
Y17067D02*
X172500D01*
X132500Y30000D02*
Y37933D01*
X172500D01*
Y17067D02*
Y37933D01*
Y17067D02*
Y37933D01*
X132500D02*
X172500D01*
X132500Y30000D02*
Y37933D01*
Y17067D02*
X172500D01*
X132500D02*
Y25000D01*
X128670Y52500D02*
Y62343D01*
X92500Y42000D02*
Y45000D01*
Y15000D02*
Y18000D01*
X90000Y18200D02*
X94989D01*
X90000Y41811D02*
X95000D01*
X90000Y18200D02*
Y41822D01*
X95000Y18189D02*
Y41811D01*
X72500Y15000D02*
Y18000D01*
Y42000D02*
Y45000D01*
X70011Y41800D02*
X75000D01*
X70000Y18189D02*
X75000D01*
Y18178D02*
Y41800D01*
X70000Y18189D02*
Y41811D01*
X74500Y84311D02*
X90500D01*
X74500Y60689D02*
X90500D01*
X94311Y69500D02*
Y75500D01*
X70689Y69500D02*
Y75500D01*
X125000Y109500D02*
Y112500D01*
Y82500D02*
Y85500D01*
X122500Y85700D02*
X127489D01*
X122500Y109311D02*
X127500D01*
X122500Y85700D02*
Y109322D01*
X127500Y85689D02*
Y109311D01*
X86500Y129000D02*
X98500D01*
Y181000D01*
X86500D02*
X98500D01*
X86500Y129000D02*
Y181000D01*
X45000Y117500D02*
X48000D01*
X72000D02*
X75000D01*
X71800Y115000D02*
Y119989D01*
X48189Y115000D02*
Y120000D01*
X48178Y115000D02*
X71800D01*
X48189Y120000D02*
X71811D01*
X37900Y136200D02*
X40900D01*
X39400Y134700D02*
Y137700D01*
X26496Y119000D02*
Y160968D01*
X7496Y119000D02*
X26472D01*
X7496D02*
Y160968D01*
X26472D01*
X26469D02*
X26496D01*
X21000Y155500D02*
X26469Y160968D01*
X26496Y154996D02*
Y155000D01*
X21000Y151500D02*
X26500Y157000D01*
X26496Y152996D02*
Y153000D01*
X21000Y147500D02*
X26496Y152996D01*
X21000Y143500D02*
X26500Y149000D01*
X21000Y139500D02*
X26498Y144998D01*
X21000Y135500D02*
X26500Y141000D01*
X21000Y131500D02*
X26500Y137000D01*
X21000Y127500D02*
X26250Y132750D01*
X21000Y123500D02*
X26498Y128998D01*
X21000Y119500D02*
X26498Y124998D01*
X21000Y119000D02*
Y160968D01*
X86500Y186500D02*
X98500D01*
Y218500D01*
X86500D02*
X98500D01*
X86500Y186500D02*
Y218500D01*
X44783Y254587D02*
X80216D01*
Y194744D02*
Y254587D01*
X72500Y194744D02*
X80216D01*
X44783Y219500D02*
Y254587D01*
Y194744D02*
X52500D01*
X44783D02*
Y199500D01*
X50524Y162500D02*
Y166500D01*
X48524Y164500D02*
X52524D01*
D12*
X109988Y135472D02*
G03*
X109988Y135472I-492J0D01*
G01*
D02*
G03*
X109988Y135472I-492J0D01*
G01*
X132874Y12500D02*
G03*
X132874Y12500I-492J0D01*
G01*
D02*
G03*
X132874Y12500I-492J0D01*
G01*
X79000Y192500D02*
X83500Y188000D01*
X79000Y183500D02*
Y192500D01*
Y183500D02*
X83500Y188000D01*
X6500Y199000D02*
X11000Y203500D01*
X2000D02*
X11000D01*
X2000D02*
X6500Y199000D01*
X78000Y130500D02*
X82500Y135000D01*
X78000Y130500D02*
Y139500D01*
X82500Y135000D01*
X347000Y98500D02*
X352500Y104000D01*
X347000Y94000D02*
X352500Y99500D01*
X347000Y89000D02*
X352500Y94500D01*
X347000Y84000D02*
X352500Y89500D01*
X347000Y79000D02*
X352500Y84500D01*
X347000Y73500D02*
X352500Y79000D01*
X347000Y68500D02*
X352500Y74000D01*
X347000Y64000D02*
X352500Y69500D01*
X347000Y64000D02*
Y106000D01*
X333500Y64000D02*
X352500D01*
X333500D02*
Y106000D01*
X352500D01*
Y64000D02*
Y106000D01*
D13*
X210000Y212000D02*
G03*
X190000Y212000I-10000J-10000D01*
G01*
Y208000D02*
G03*
X210000Y208000I10000J10000D01*
G01*
X275000Y115500D02*
G03*
X295000Y115500I10000J10000D01*
G01*
Y119500D02*
G03*
X275000Y119500I-10000J-10000D01*
G01*
X245000D02*
G03*
X225000Y119500I-10000J-10000D01*
G01*
Y115500D02*
G03*
X245000Y115500I10000J10000D01*
G01*
X195500Y67500D02*
G03*
X195500Y47500I10000J-10000D01*
G01*
X199500D02*
G03*
X199500Y67500I-10000J10000D01*
G01*
X115500Y37500D02*
G03*
X115500Y17500I10000J-10000D01*
G01*
X119500D02*
G03*
X119500Y37500I-10000J10000D01*
G01*
X92500Y102000D02*
G03*
X72500Y102000I-10000J-10000D01*
G01*
Y98000D02*
G03*
X92500Y98000I10000J10000D01*
G01*
X95000Y115500D02*
G03*
X115000Y115500I10000J10000D01*
G01*
Y119500D02*
G03*
X95000Y119500I-10000J-10000D01*
G01*
X63000Y150000D02*
G03*
X63000Y130000I10000J-10000D01*
G01*
X67000D02*
G03*
X67000Y150000I-10000J10000D01*
G01*
X12500Y175500D02*
G03*
X32500Y175500I10000J10000D01*
G01*
Y179500D02*
G03*
X12500Y179500I-10000J-10000D01*
G01*
X103504Y93110D02*
Y229110D01*
Y235110D01*
X418304D01*
X418304Y93110D01*
X103504D02*
X418304D01*
X393504Y118110D02*
Y208110D01*
X128504D02*
X393504D01*
X128504Y118110D02*
Y208110D01*
Y118110D02*
X393504D01*
X171500Y6500D02*
X178165D01*
X228000Y6832D02*
X234665D01*
X231332Y10165D02*
Y3500D01*
X31999Y203999D02*
X30500D01*
X31249D01*
Y200250D01*
X30500Y199500D01*
X29750D01*
X29000Y200250D01*
X35748Y199500D02*
Y203999D01*
X33499Y201749D01*
X36498D01*
X29499Y193749D02*
X28749Y194499D01*
X27250D01*
X26500Y193749D01*
Y190750D01*
X27250Y190000D01*
X28749D01*
X29499Y190750D01*
Y192249D01*
X27999D01*
X30999Y190000D02*
Y194499D01*
X33998Y190000D01*
Y194499D01*
X35497D02*
Y190000D01*
X37746D01*
X38496Y190750D01*
Y193749D01*
X37746Y194499D01*
X35497D01*
X16500Y190000D02*
Y194499D01*
X18749D01*
X19499Y193749D01*
Y192249D01*
X18749Y191499D01*
X16500D01*
X18000D02*
X19499Y190000D01*
X20999Y194499D02*
X23998Y190000D01*
Y194499D02*
X20999Y190000D01*
X6000Y194499D02*
X8999D01*
X7500D01*
Y190000D01*
X10499Y194499D02*
X13498Y190000D01*
Y194499D02*
X10499Y190000D01*
X83000Y145000D02*
X77002D01*
Y147999D01*
X78002Y148999D01*
X80001D01*
X81001Y147999D01*
Y145000D01*
X77002Y150998D02*
Y152997D01*
Y151998D01*
X83000D01*
Y150998D01*
Y152997D01*
X78002Y159995D02*
X77002Y158995D01*
Y156996D01*
X78002Y155996D01*
X82000D01*
X83000Y156996D01*
Y158995D01*
X82000Y159995D01*
X77002Y161995D02*
X83000D01*
X81001D01*
X77002Y165993D01*
X80001Y162994D01*
X83000Y165993D01*
X77002Y167993D02*
Y169992D01*
Y168992D01*
X83000D01*
Y167993D01*
Y169992D01*
X77002Y172991D02*
Y176990D01*
Y174990D01*
X83000D01*
X169504Y154110D02*
X176064D01*
X172784D01*
Y173789D01*
X169504Y170509D01*
X199022Y173789D02*
X192462Y170509D01*
X185903Y163950D01*
Y157390D01*
X189183Y154110D01*
X195742D01*
X199022Y157390D01*
Y160670D01*
X195742Y163950D01*
X185903D01*
X225260Y167229D02*
X238379Y154110D01*
X231820Y160670D01*
X238379Y167229D01*
X225260Y154110D01*
X277737D02*
X264618D01*
X277737Y167229D01*
Y170509D01*
X274457Y173789D01*
X267897D01*
X264618Y170509D01*
X303975Y173789D02*
Y154110D01*
X317094D01*
X336773Y170509D02*
X333493Y173789D01*
X326933D01*
X323654Y170509D01*
Y157390D01*
X326933Y154110D01*
X333493D01*
X336773Y157390D01*
X343332Y173789D02*
Y154110D01*
X353172D01*
X356451Y157390D01*
Y170509D01*
X353172Y173789D01*
X343332D01*
X286169Y218999D02*
Y214001D01*
X289502D01*
X294500Y218166D02*
X293667Y218999D01*
X292001D01*
X291168Y218166D01*
Y214834D01*
X292001Y214001D01*
X293667D01*
X294500Y214834D01*
X296166Y218999D02*
Y214001D01*
X298665D01*
X299498Y214834D01*
Y218166D01*
X298665Y218999D01*
X296166D01*
X301165Y214001D02*
X302831D01*
X301998D01*
Y218999D01*
X301165Y218166D01*
X257168Y108999D02*
X260500Y104001D01*
Y108999D02*
X257168Y104001D01*
X262166D02*
X263832D01*
X262999D01*
Y108999D01*
X262166Y108166D01*
X134001Y53669D02*
X137333D01*
X138999Y55335D01*
X137333Y57001D01*
X134001D01*
X138999Y58667D02*
X134001D01*
Y61166D01*
X134834Y61999D01*
X136500D01*
X137333Y61166D01*
Y58667D01*
Y60333D02*
X138999Y61999D01*
Y63665D02*
Y65331D01*
Y64498D01*
X134001D01*
X134834Y63665D01*
X119835Y13999D02*
Y9834D01*
X120668Y9001D01*
X122334D01*
X123167Y9834D01*
Y13999D01*
X124833Y13166D02*
X125666Y13999D01*
X127332D01*
X128165Y13166D01*
Y12333D01*
X127332Y11500D01*
X126499D01*
X127332D01*
X128165Y10667D01*
Y9834D01*
X127332Y9001D01*
X125666D01*
X124833Y9834D01*
X113035Y128779D02*
Y124614D01*
X113868Y123781D01*
X115534D01*
X116367Y124614D01*
Y128779D01*
X121366Y123781D02*
X118034D01*
X121366Y127113D01*
Y127946D01*
X120533Y128779D01*
X118867D01*
X118034Y127946D01*
X29668Y154999D02*
Y150834D01*
X30501Y150001D01*
X32167D01*
X33000Y150834D01*
Y154999D01*
X34666Y150001D02*
X36332D01*
X35499D01*
Y154999D01*
X34666Y154166D01*
X79501Y57666D02*
X78668Y58499D01*
X77002D01*
X76169Y57666D01*
Y56833D01*
X77002Y56000D01*
X78668D01*
X79501Y55167D01*
Y54334D01*
X78668Y53501D01*
X77002D01*
X76169Y54334D01*
X81167Y58499D02*
Y53501D01*
X82833Y55167D01*
X84499Y53501D01*
Y58499D01*
X86165Y53501D02*
X87831D01*
X86998D01*
Y58499D01*
X86165Y57666D01*
X54752Y26001D02*
Y30999D01*
X57251D01*
X58084Y30166D01*
Y28500D01*
X57251Y27667D01*
X54752D01*
X56418D02*
X58084Y26001D01*
X59750D02*
X61417D01*
X60584D01*
Y30999D01*
X59750Y30166D01*
X67248Y30999D02*
X63916D01*
Y28500D01*
X65582Y29333D01*
X66415D01*
X67248Y28500D01*
Y26834D01*
X66415Y26001D01*
X64749D01*
X63916Y26834D01*
X316752Y57001D02*
Y61999D01*
X319251D01*
X320084Y61166D01*
Y59500D01*
X319251Y58667D01*
X316752D01*
X318418D02*
X320084Y57001D01*
X321750D02*
X323416D01*
X322584D01*
Y61999D01*
X321750Y61166D01*
X328415Y57001D02*
Y61999D01*
X325916Y59500D01*
X329248D01*
X332252Y57001D02*
Y61999D01*
X334751D01*
X335584Y61166D01*
Y59500D01*
X334751Y58667D01*
X332252D01*
X333918D02*
X335584Y57001D01*
X337250D02*
X338916D01*
X338084D01*
Y61999D01*
X337250Y61166D01*
X341416D02*
X342249Y61999D01*
X343915D01*
X344748Y61166D01*
Y60333D01*
X343915Y59500D01*
X343082D01*
X343915D01*
X344748Y58667D01*
Y57834D01*
X343915Y57001D01*
X342249D01*
X341416Y57834D01*
X316752Y48501D02*
Y53499D01*
X319251D01*
X320084Y52666D01*
Y51000D01*
X319251Y50167D01*
X316752D01*
X318418D02*
X320084Y48501D01*
X321750D02*
X323416D01*
X322584D01*
Y53499D01*
X321750Y52666D01*
X329248Y48501D02*
X325916D01*
X329248Y51833D01*
Y52666D01*
X328415Y53499D01*
X326749D01*
X325916Y52666D01*
X332585Y48501D02*
Y53499D01*
X335084D01*
X335917Y52666D01*
Y51000D01*
X335084Y50167D01*
X332585D01*
X334251D02*
X335917Y48501D01*
X337583D02*
X339250D01*
X338417D01*
Y53499D01*
X337583Y52666D01*
X341749Y48501D02*
X343415D01*
X342582D01*
Y53499D01*
X341749Y52666D01*
X209252Y95501D02*
Y100499D01*
X211751D01*
X212584Y99666D01*
Y98000D01*
X211751Y97167D01*
X209252D01*
X210918D02*
X212584Y95501D01*
X214250D02*
X215916D01*
X215084D01*
Y100499D01*
X214250Y99666D01*
X218416D02*
X219249Y100499D01*
X220915D01*
X221748Y99666D01*
Y96334D01*
X220915Y95501D01*
X219249D01*
X218416Y96334D01*
Y99666D01*
X79335Y26001D02*
Y30999D01*
X81834D01*
X82667Y30166D01*
Y28500D01*
X81834Y27667D01*
X79335D01*
X81001D02*
X82667Y26001D01*
X84333Y26834D02*
X85166Y26001D01*
X86832D01*
X87665Y26834D01*
Y30166D01*
X86832Y30999D01*
X85166D01*
X84333Y30166D01*
Y29333D01*
X85166Y28500D01*
X87665D01*
X131335Y75001D02*
Y79999D01*
X133834D01*
X134667Y79166D01*
Y77500D01*
X133834Y76667D01*
X131335D01*
X133001D02*
X134667Y75001D01*
X136333Y79166D02*
X137166Y79999D01*
X138832D01*
X139665Y79166D01*
Y78333D01*
X138832Y77500D01*
X139665Y76667D01*
Y75834D01*
X138832Y75001D01*
X137166D01*
X136333Y75834D01*
Y76667D01*
X137166Y77500D01*
X136333Y78333D01*
Y79166D01*
X137166Y77500D02*
X138832D01*
X224835Y95501D02*
Y100499D01*
X227334D01*
X228167Y99666D01*
Y98000D01*
X227334Y97167D01*
X224835D01*
X226501D02*
X228167Y95501D01*
X229833Y100499D02*
X233165D01*
Y99666D01*
X229833Y96334D01*
Y95501D01*
X131335Y85001D02*
Y89999D01*
X133834D01*
X134667Y89166D01*
Y87500D01*
X133834Y86667D01*
X131335D01*
X133001D02*
X134667Y85001D01*
X139665Y89999D02*
X137999Y89166D01*
X136333Y87500D01*
Y85834D01*
X137166Y85001D01*
X138832D01*
X139665Y85834D01*
Y86667D01*
X138832Y87500D01*
X136333D01*
X130835Y200501D02*
Y205499D01*
X133334D01*
X134167Y204666D01*
Y203000D01*
X133334Y202167D01*
X130835D01*
X132501D02*
X134167Y200501D01*
X139165Y205499D02*
X135833D01*
Y203000D01*
X137499Y203833D01*
X138332D01*
X139165Y203000D01*
Y201334D01*
X138332Y200501D01*
X136666D01*
X135833Y201334D01*
X111835Y84501D02*
Y89499D01*
X114334D01*
X115167Y88666D01*
Y87000D01*
X114334Y86167D01*
X111835D01*
X113501D02*
X115167Y84501D01*
X119332D02*
Y89499D01*
X116833Y87000D01*
X120165D01*
X160335Y122501D02*
Y127499D01*
X162834D01*
X163667Y126666D01*
Y125000D01*
X162834Y124167D01*
X160335D01*
X162001D02*
X163667Y122501D01*
X165333Y126666D02*
X166166Y127499D01*
X167832D01*
X168665Y126666D01*
Y125833D01*
X167832Y125000D01*
X166999D01*
X167832D01*
X168665Y124167D01*
Y123334D01*
X167832Y122501D01*
X166166D01*
X165333Y123334D01*
X318335Y180501D02*
Y185499D01*
X320834D01*
X321667Y184666D01*
Y183000D01*
X320834Y182167D01*
X318335D01*
X320001D02*
X321667Y180501D01*
X326665D02*
X323333D01*
X326665Y183833D01*
Y184666D01*
X325832Y185499D01*
X324166D01*
X323333Y184666D01*
X56168Y107001D02*
Y111999D01*
X58667D01*
X59500Y111166D01*
Y109500D01*
X58667Y108667D01*
X56168D01*
X57834D02*
X59500Y107001D01*
X61166D02*
X62832D01*
X61999D01*
Y111999D01*
X61166Y111166D01*
X341000Y111334D02*
Y114666D01*
X340167Y115499D01*
X338501D01*
X337668Y114666D01*
Y111334D01*
X338501Y110501D01*
X340167D01*
X339334Y112167D02*
X341000Y110501D01*
X340167D02*
X341000Y111334D01*
X342666Y110501D02*
X344332D01*
X343499D01*
Y115499D01*
X342666Y114666D01*
X184667Y49999D02*
X183001D01*
X183834D01*
Y45834D01*
X183001Y45001D01*
X182168D01*
X181335Y45834D01*
X189665Y49999D02*
X186333D01*
Y47500D01*
X187999Y48333D01*
X188832D01*
X189665Y47500D01*
Y45834D01*
X188832Y45001D01*
X187166D01*
X186333Y45834D01*
X91167Y225999D02*
X89501D01*
X90334D01*
Y221834D01*
X89501Y221001D01*
X88668D01*
X87835Y221834D01*
X95332Y221001D02*
Y225999D01*
X92833Y223500D01*
X96165D01*
X338667Y135499D02*
X337001D01*
X337834D01*
Y131334D01*
X337001Y130501D01*
X336168D01*
X335335Y131334D01*
X340333Y134666D02*
X341166Y135499D01*
X342832D01*
X343665Y134666D01*
Y133833D01*
X342832Y133000D01*
X341999D01*
X342832D01*
X343665Y132167D01*
Y131334D01*
X342832Y130501D01*
X341166D01*
X340333Y131334D01*
X88667Y126499D02*
X87001D01*
X87834D01*
Y122334D01*
X87001Y121501D01*
X86168D01*
X85335Y122334D01*
X93665Y121501D02*
X90333D01*
X93665Y124833D01*
Y125666D01*
X92832Y126499D01*
X91166D01*
X90333Y125666D01*
X39000Y229499D02*
X37334D01*
X38167D01*
Y225334D01*
X37334Y224501D01*
X36501D01*
X35668Y225334D01*
X40666Y224501D02*
X42332D01*
X41499D01*
Y229499D01*
X40666Y228666D01*
X321000Y103499D02*
X317668D01*
Y101000D01*
X319334D01*
X317668D01*
Y98501D01*
X322666D02*
X324332D01*
X323499D01*
Y103499D01*
X322666Y102666D01*
X14000Y111499D02*
X10668D01*
Y106501D01*
X14000D01*
X10668Y109000D02*
X12334D01*
X15666Y106501D02*
X17332D01*
X16499D01*
Y111499D01*
X15666Y110666D01*
X131335Y109999D02*
Y105001D01*
X133834D01*
X134667Y105834D01*
Y109166D01*
X133834Y109999D01*
X131335D01*
X136333Y109166D02*
X137166Y109999D01*
X138832D01*
X139665Y109166D01*
Y108333D01*
X138832Y107500D01*
X137999D01*
X138832D01*
X139665Y106667D01*
Y105834D01*
X138832Y105001D01*
X137166D01*
X136333Y105834D01*
X131335Y101499D02*
Y96501D01*
X133834D01*
X134667Y97334D01*
Y100666D01*
X133834Y101499D01*
X131335D01*
X139665Y96501D02*
X136333D01*
X139665Y99833D01*
Y100666D01*
X138832Y101499D01*
X137166D01*
X136333Y100666D01*
X105168Y76499D02*
Y71501D01*
X107667D01*
X108500Y72334D01*
Y75666D01*
X107667Y76499D01*
X105168D01*
X110166Y71501D02*
X111832D01*
X110999D01*
Y76499D01*
X110166Y75666D01*
X282084Y108166D02*
X281251Y108999D01*
X279585D01*
X278752Y108166D01*
Y104834D01*
X279585Y104001D01*
X281251D01*
X282084Y104834D01*
X283750Y104001D02*
X285417D01*
X284583D01*
Y108999D01*
X283750Y108166D01*
X291248Y104001D02*
X287916D01*
X291248Y107333D01*
Y108166D01*
X290415Y108999D01*
X288749D01*
X287916Y108166D01*
X184834Y61417D02*
X184001Y60584D01*
Y58918D01*
X184834Y58085D01*
X188166D01*
X188999Y58918D01*
Y60584D01*
X188166Y61417D01*
X188999Y63083D02*
Y64750D01*
Y63916D01*
X184001D01*
X184834Y63083D01*
X188999Y67249D02*
Y68915D01*
Y68082D01*
X184001D01*
X184834Y67249D01*
X196084Y99666D02*
X195251Y100499D01*
X193585D01*
X192752Y99666D01*
Y96334D01*
X193585Y95501D01*
X195251D01*
X196084Y96334D01*
X197750Y95501D02*
X199416D01*
X198583D01*
Y100499D01*
X197750Y99666D01*
X201916D02*
X202749Y100499D01*
X204415D01*
X205248Y99666D01*
Y96334D01*
X204415Y95501D01*
X202749D01*
X201916Y96334D01*
Y99666D01*
X234167Y108166D02*
X233334Y108999D01*
X231668D01*
X230835Y108166D01*
Y104834D01*
X231668Y104001D01*
X233334D01*
X234167Y104834D01*
X235833D02*
X236666Y104001D01*
X238332D01*
X239165Y104834D01*
Y108166D01*
X238332Y108999D01*
X236666D01*
X235833Y108166D01*
Y107333D01*
X236666Y106500D01*
X239165D01*
X104167Y28666D02*
X103334Y29499D01*
X101668D01*
X100835Y28666D01*
Y25334D01*
X101668Y24501D01*
X103334D01*
X104167Y25334D01*
X105833Y28666D02*
X106666Y29499D01*
X108332D01*
X109165Y28666D01*
Y27833D01*
X108332Y27000D01*
X109165Y26167D01*
Y25334D01*
X108332Y24501D01*
X106666D01*
X105833Y25334D01*
Y26167D01*
X106666Y27000D01*
X105833Y27833D01*
Y28666D01*
X106666Y27000D02*
X108332D01*
X93366Y110655D02*
X92533Y111488D01*
X90867D01*
X90034Y110655D01*
Y107323D01*
X90867Y106490D01*
X92533D01*
X93366Y107323D01*
X95032Y111488D02*
X98364D01*
Y110655D01*
X95032Y107323D01*
Y106490D01*
X217167Y216166D02*
X216334Y216999D01*
X214668D01*
X213835Y216166D01*
Y212834D01*
X214668Y212001D01*
X216334D01*
X217167Y212834D01*
X222165Y216999D02*
X220499Y216166D01*
X218833Y214500D01*
Y212834D01*
X219666Y212001D01*
X221332D01*
X222165Y212834D01*
Y213667D01*
X221332Y214500D01*
X218833D01*
X81310Y90985D02*
X80477Y91818D01*
X78811D01*
X77978Y90985D01*
Y87652D01*
X78811Y86819D01*
X80477D01*
X81310Y87652D01*
X86308Y91818D02*
X82976D01*
Y89319D01*
X84642Y90152D01*
X85475D01*
X86308Y89319D01*
Y87652D01*
X85475Y86819D01*
X83809D01*
X82976Y87652D01*
X36667Y164666D02*
X35834Y165499D01*
X34168D01*
X33335Y164666D01*
Y161334D01*
X34168Y160501D01*
X35834D01*
X36667Y161334D01*
X40832Y160501D02*
Y165499D01*
X38333Y163000D01*
X41665D01*
X64167Y127166D02*
X63334Y127999D01*
X61668D01*
X60835Y127166D01*
Y123834D01*
X61668Y123001D01*
X63334D01*
X64167Y123834D01*
X65833Y127166D02*
X66666Y127999D01*
X68332D01*
X69165Y127166D01*
Y126333D01*
X68332Y125500D01*
X67499D01*
X68332D01*
X69165Y124667D01*
Y123834D01*
X68332Y123001D01*
X66666D01*
X65833Y123834D01*
X43667Y127166D02*
X42834Y127999D01*
X41168D01*
X40335Y127166D01*
Y123834D01*
X41168Y123001D01*
X42834D01*
X43667Y123834D01*
X48665Y123001D02*
X45333D01*
X48665Y126333D01*
Y127166D01*
X47832Y127999D01*
X46166D01*
X45333Y127166D01*
X22000Y168666D02*
X21167Y169499D01*
X19501D01*
X18668Y168666D01*
Y165334D01*
X19501Y164501D01*
X21167D01*
X22000Y165334D01*
X23666Y164501D02*
X25332D01*
X24499D01*
Y169499D01*
X23666Y168666D01*
D14*
X11969Y83000D02*
Y99567D01*
Y45433D02*
Y62000D01*
X58031Y45433D02*
Y62000D01*
X11969Y45433D02*
X17500D01*
X52500D02*
X58031D01*
X11969Y99567D02*
X17500D01*
X52500D02*
X58031D01*
Y83000D02*
Y99567D01*
D15*
X25500Y187000D02*
Y197500D01*
X15000Y187000D02*
Y197500D01*
X5000Y187000D02*
X39500D01*
Y197500D01*
X5000D02*
X39500D01*
X5000Y187000D02*
Y197500D01*
D16*
X168743Y97500D02*
D03*
X161257Y107500D02*
D03*
M02*
