G04*
G04 #@! TF.GenerationSoftware,Altium Limited,Altium Designer,20.1.8 (145)*
G04*
G04 Layer_Physical_Order=1*
G04 Layer_Color=255*
%FSLAX25Y25*%
%MOIN*%
G70*
G04*
G04 #@! TF.SameCoordinates,DC33A1B7-073B-4291-B7B0-CC2688F11226*
G04*
G04*
G04 #@! TF.FilePolarity,Positive*
G04*
G01*
G75*
%ADD44C,0.03000*%
%ADD45C,0.01200*%
%ADD46C,0.02000*%
%ADD47C,0.01500*%
%ADD48R,0.06673X0.06673*%
%ADD49C,0.06673*%
%ADD50R,0.11811X0.13622*%
%ADD51C,0.07480*%
%ADD52R,0.07480X0.07480*%
%ADD53C,0.05630*%
%ADD54R,0.05630X0.05630*%
%ADD55C,0.07244*%
%ADD56R,0.07244X0.07244*%
%ADD57C,0.06024*%
%ADD58C,0.05709*%
%ADD59R,0.07244X0.07244*%
%ADD60C,0.05118*%
%ADD61C,0.06890*%
%ADD62C,0.08268*%
%ADD63R,0.08268X0.08268*%
%ADD64R,0.05709X0.05709*%
%ADD65R,0.06102X0.06102*%
%ADD66C,0.06102*%
%ADD67R,0.05748X0.05748*%
%ADD68C,0.05748*%
%ADD69R,0.05709X0.05709*%
%ADD70C,0.06693*%
%ADD71R,0.15551X0.05906*%
%ADD72R,0.05906X0.15551*%
%ADD73C,0.25591*%
%ADD74C,0.03150*%
G36*
X268697Y224752D02*
X268966Y223456D01*
X269129Y222875D01*
X269312Y222340D01*
X269513Y221849D01*
X269734Y221404D01*
X269974Y221003D01*
X270233Y220648D01*
X270511Y220337D01*
X269663Y219489D01*
X269352Y219767D01*
X268997Y220026D01*
X268597Y220266D01*
X268151Y220487D01*
X267660Y220688D01*
X267125Y220871D01*
X266545Y221034D01*
X265248Y221303D01*
X264533Y221408D01*
X268592Y225467D01*
X268697Y224752D01*
D02*
G37*
G36*
X258697D02*
X258966Y223456D01*
X259129Y222875D01*
X259312Y222340D01*
X259513Y221849D01*
X259734Y221404D01*
X259974Y221003D01*
X260233Y220648D01*
X260511Y220337D01*
X259663Y219489D01*
X259352Y219767D01*
X258997Y220026D01*
X258596Y220266D01*
X258151Y220487D01*
X257661Y220688D01*
X257125Y220871D01*
X256544Y221034D01*
X255248Y221303D01*
X254533Y221408D01*
X258592Y225467D01*
X258697Y224752D01*
D02*
G37*
G36*
X248697D02*
X248966Y223456D01*
X249129Y222875D01*
X249312Y222340D01*
X249513Y221849D01*
X249734Y221404D01*
X249974Y221003D01*
X250233Y220648D01*
X250511Y220337D01*
X249663Y219489D01*
X249352Y219767D01*
X248997Y220026D01*
X248597Y220266D01*
X248151Y220487D01*
X247660Y220688D01*
X247125Y220871D01*
X246545Y221034D01*
X245248Y221303D01*
X244533Y221408D01*
X248592Y225467D01*
X248697Y224752D01*
D02*
G37*
G36*
X238697D02*
X238966Y223456D01*
X239129Y222875D01*
X239312Y222340D01*
X239513Y221849D01*
X239734Y221404D01*
X239974Y221003D01*
X240233Y220648D01*
X240511Y220337D01*
X239663Y219489D01*
X239352Y219767D01*
X238997Y220026D01*
X238597Y220266D01*
X238151Y220487D01*
X237661Y220688D01*
X237125Y220871D01*
X236544Y221034D01*
X235248Y221303D01*
X234533Y221408D01*
X238592Y225467D01*
X238697Y224752D01*
D02*
G37*
G36*
X188697D02*
X188966Y223456D01*
X189129Y222875D01*
X189312Y222340D01*
X189513Y221849D01*
X189734Y221404D01*
X189974Y221003D01*
X190233Y220648D01*
X190511Y220337D01*
X189663Y219489D01*
X189352Y219767D01*
X188997Y220026D01*
X188596Y220266D01*
X188151Y220487D01*
X187661Y220688D01*
X187125Y220871D01*
X186545Y221034D01*
X185248Y221303D01*
X184533Y221408D01*
X188592Y225467D01*
X188697Y224752D01*
D02*
G37*
G36*
X147515Y222304D02*
X147197Y221817D01*
X146916Y221330D01*
X146673Y220842D01*
X146467Y220352D01*
X146299Y219863D01*
X146168Y219372D01*
X146075Y218881D01*
X146019Y218389D01*
X146000Y217897D01*
X144000D01*
X143981Y218389D01*
X143925Y218881D01*
X143832Y219372D01*
X143701Y219863D01*
X143533Y220352D01*
X143327Y220842D01*
X143084Y221330D01*
X142803Y221817D01*
X142485Y222304D01*
X142130Y222791D01*
X147870D01*
X147515Y222304D01*
D02*
G37*
G36*
X177439Y222210D02*
X176712Y221103D01*
X176417Y220578D01*
X176168Y220070D01*
X175963Y219581D01*
X175804Y219110D01*
X175691Y218657D01*
X175623Y218222D01*
X175600Y217806D01*
X174400D01*
X174377Y218222D01*
X174309Y218657D01*
X174196Y219110D01*
X174037Y219581D01*
X173832Y220070D01*
X173583Y220578D01*
X173288Y221103D01*
X172561Y222210D01*
X172130Y222791D01*
X177870D01*
X177439Y222210D01*
D02*
G37*
G36*
X167439D02*
X166712Y221103D01*
X166417Y220578D01*
X166167Y220070D01*
X165963Y219581D01*
X165804Y219110D01*
X165691Y218657D01*
X165623Y218222D01*
X165600Y217806D01*
X164400D01*
X164377Y218222D01*
X164309Y218657D01*
X164196Y219110D01*
X164037Y219581D01*
X163832Y220070D01*
X163583Y220578D01*
X163288Y221103D01*
X162561Y222210D01*
X162130Y222791D01*
X167870D01*
X167439Y222210D01*
D02*
G37*
G36*
X157439D02*
X156712Y221103D01*
X156417Y220578D01*
X156167Y220070D01*
X155963Y219581D01*
X155804Y219110D01*
X155691Y218657D01*
X155623Y218222D01*
X155600Y217806D01*
X154400D01*
X154377Y218222D01*
X154309Y218657D01*
X154196Y219110D01*
X154037Y219581D01*
X153832Y220070D01*
X153583Y220578D01*
X153288Y221103D01*
X152561Y222210D01*
X152130Y222791D01*
X157870D01*
X157439Y222210D01*
D02*
G37*
G36*
X77701Y217963D02*
X77659Y217863D01*
X77622Y217739D01*
X77589Y217592D01*
X77562Y217421D01*
X77522Y217007D01*
X77515Y216812D01*
X77562Y216079D01*
X77589Y215908D01*
X77622Y215761D01*
X77659Y215637D01*
X77701Y215537D01*
X77748Y215461D01*
X75252D01*
X75299Y215537D01*
X75341Y215637D01*
X75379Y215761D01*
X75411Y215908D01*
X75438Y216079D01*
X75478Y216493D01*
X75485Y216688D01*
X75438Y217421D01*
X75411Y217592D01*
X75379Y217739D01*
X75341Y217863D01*
X75299Y217963D01*
X75252Y218039D01*
X77748D01*
X77701Y217963D01*
D02*
G37*
G36*
X155618Y215597D02*
X155672Y215220D01*
X155761Y214834D01*
X155886Y214437D01*
X156047Y214029D01*
X156243Y213611D01*
X156475Y213183D01*
X157047Y212296D01*
X157387Y211837D01*
X152613D01*
X152953Y212296D01*
X153525Y213183D01*
X153757Y213611D01*
X153953Y214029D01*
X154114Y214437D01*
X154239Y214834D01*
X154329Y215220D01*
X154382Y215597D01*
X154400Y215963D01*
X155600D01*
X155618Y215597D01*
D02*
G37*
G36*
X77701Y213463D02*
X77659Y213363D01*
X77622Y213239D01*
X77589Y213092D01*
X77562Y212921D01*
X77522Y212507D01*
X77515Y212312D01*
X77562Y211579D01*
X77589Y211408D01*
X77622Y211261D01*
X77659Y211137D01*
X77701Y211037D01*
X77748Y210961D01*
X76500Y210000D01*
X77748Y209039D01*
X77701Y208963D01*
X77659Y208863D01*
X77622Y208739D01*
X77589Y208592D01*
X77562Y208421D01*
X77503Y207499D01*
X77500Y207209D01*
X75500D01*
X75498Y207499D01*
X75478Y208007D01*
X75438Y208421D01*
X75411Y208592D01*
X75379Y208739D01*
X75341Y208863D01*
X75299Y208963D01*
X75252Y209039D01*
X76500Y210000D01*
X75252Y210961D01*
X75299Y211037D01*
X75341Y211137D01*
X75379Y211261D01*
X75411Y211408D01*
X75438Y211579D01*
X75478Y211993D01*
X75485Y212188D01*
X75438Y212921D01*
X75411Y213092D01*
X75379Y213239D01*
X75341Y213363D01*
X75299Y213463D01*
X75252Y213539D01*
X77748D01*
X77701Y213463D01*
D02*
G37*
G36*
X152940Y204878D02*
X153634Y204268D01*
X153774Y204166D01*
X153902Y204084D01*
X154015Y204023D01*
X154116Y203982D01*
X154203Y203962D01*
X152438Y202197D01*
X152418Y202284D01*
X152377Y202385D01*
X152316Y202498D01*
X152234Y202625D01*
X152132Y202766D01*
X151868Y203086D01*
X151522Y203460D01*
X151319Y203667D01*
X152733Y205081D01*
X152940Y204878D01*
D02*
G37*
G36*
X231748Y199124D02*
X232035Y198905D01*
X232351Y198705D01*
X232696Y198521D01*
X233069Y198356D01*
X233471Y198208D01*
X233901Y198077D01*
X234360Y197965D01*
X235363Y197792D01*
X232209Y194637D01*
X232131Y195153D01*
X231923Y196099D01*
X231792Y196529D01*
X231644Y196931D01*
X231479Y197304D01*
X231295Y197649D01*
X231095Y197965D01*
X230876Y198252D01*
X230641Y198511D01*
X231489Y199360D01*
X231748Y199124D01*
D02*
G37*
G36*
X221748D02*
X222036Y198905D01*
X222352Y198705D01*
X222696Y198521D01*
X223069Y198356D01*
X223471Y198208D01*
X223901Y198077D01*
X224360Y197965D01*
X225363Y197792D01*
X222209Y194637D01*
X222131Y195153D01*
X221923Y196099D01*
X221792Y196529D01*
X221644Y196931D01*
X221479Y197304D01*
X221295Y197649D01*
X221095Y197965D01*
X220876Y198252D01*
X220640Y198511D01*
X221489Y199360D01*
X221748Y199124D01*
D02*
G37*
G36*
X151748D02*
X152035Y198905D01*
X152351Y198705D01*
X152696Y198521D01*
X153069Y198356D01*
X153471Y198208D01*
X153901Y198077D01*
X154360Y197965D01*
X155363Y197792D01*
X152208Y194637D01*
X152131Y195153D01*
X151923Y196099D01*
X151792Y196529D01*
X151644Y196931D01*
X151479Y197304D01*
X151295Y197649D01*
X151095Y197965D01*
X150876Y198252D01*
X150640Y198511D01*
X151489Y199360D01*
X151748Y199124D01*
D02*
G37*
G36*
X131748D02*
X132036Y198905D01*
X132352Y198705D01*
X132696Y198521D01*
X133069Y198356D01*
X133471Y198208D01*
X133901Y198077D01*
X134360Y197965D01*
X135363Y197792D01*
X132209Y194637D01*
X132131Y195153D01*
X131923Y196099D01*
X131792Y196529D01*
X131644Y196931D01*
X131479Y197304D01*
X131295Y197649D01*
X131095Y197965D01*
X130876Y198252D01*
X130640Y198511D01*
X131489Y199360D01*
X131748Y199124D01*
D02*
G37*
G36*
X121748D02*
X122036Y198905D01*
X122352Y198705D01*
X122696Y198521D01*
X123069Y198356D01*
X123471Y198208D01*
X123901Y198077D01*
X124360Y197965D01*
X125363Y197792D01*
X122208Y194637D01*
X122131Y195153D01*
X121923Y196099D01*
X121792Y196529D01*
X121644Y196931D01*
X121479Y197304D01*
X121295Y197649D01*
X121095Y197965D01*
X120876Y198252D01*
X120641Y198511D01*
X121489Y199360D01*
X121748Y199124D01*
D02*
G37*
G36*
X291748D02*
X292035Y198905D01*
X292352Y198705D01*
X292696Y198521D01*
X293069Y198356D01*
X293471Y198208D01*
X293901Y198077D01*
X294360Y197965D01*
X295363Y197792D01*
X292209Y194637D01*
X292131Y195153D01*
X291923Y196099D01*
X291792Y196529D01*
X291644Y196931D01*
X291479Y197304D01*
X291295Y197649D01*
X291095Y197965D01*
X290876Y198252D01*
X290640Y198511D01*
X291489Y199360D01*
X291748Y199124D01*
D02*
G37*
G36*
X241748D02*
X242035Y198905D01*
X242352Y198705D01*
X242696Y198521D01*
X243069Y198356D01*
X243471Y198208D01*
X243901Y198077D01*
X244360Y197965D01*
X245363Y197792D01*
X242209Y194637D01*
X242131Y195153D01*
X241923Y196099D01*
X241792Y196529D01*
X241644Y196931D01*
X241479Y197304D01*
X241295Y197649D01*
X241095Y197965D01*
X240876Y198252D01*
X240640Y198511D01*
X241489Y199360D01*
X241748Y199124D01*
D02*
G37*
G36*
X141748D02*
X142035Y198905D01*
X142351Y198705D01*
X142696Y198521D01*
X143069Y198356D01*
X143471Y198208D01*
X143901Y198077D01*
X144360Y197965D01*
X145363Y197792D01*
X142209Y194637D01*
X142131Y195153D01*
X141923Y196099D01*
X141792Y196529D01*
X141644Y196931D01*
X141479Y197304D01*
X141295Y197649D01*
X141095Y197965D01*
X140876Y198252D01*
X140640Y198511D01*
X141489Y199360D01*
X141748Y199124D01*
D02*
G37*
G36*
X305363Y192209D02*
X304847Y192131D01*
X303901Y191923D01*
X303471Y191792D01*
X303069Y191644D01*
X302696Y191479D01*
X302351Y191295D01*
X302035Y191095D01*
X301748Y190876D01*
X301489Y190640D01*
X300641Y191489D01*
X300876Y191748D01*
X301095Y192035D01*
X301295Y192351D01*
X301479Y192696D01*
X301644Y193069D01*
X301792Y193471D01*
X301923Y193901D01*
X302035Y194360D01*
X302209Y195363D01*
X305363Y192209D01*
D02*
G37*
G36*
X196997Y192958D02*
X196788Y192622D01*
X196603Y192276D01*
X196443Y191919D01*
X196308Y191551D01*
X196197Y191173D01*
X196111Y190784D01*
X196049Y190385D01*
X196012Y189974D01*
X196000Y189554D01*
X194000D01*
X193988Y189974D01*
X193951Y190385D01*
X193889Y190784D01*
X193803Y191173D01*
X193692Y191551D01*
X193557Y191919D01*
X193397Y192276D01*
X193212Y192622D01*
X193003Y192958D01*
X192769Y193283D01*
X197231D01*
X196997Y192958D01*
D02*
G37*
G36*
X116921Y192863D02*
X116399Y192047D01*
X116187Y191650D01*
X116008Y191262D01*
X115861Y190881D01*
X115747Y190508D01*
X115665Y190142D01*
X115616Y189785D01*
X115600Y189435D01*
X114400D01*
X114384Y189785D01*
X114335Y190142D01*
X114253Y190508D01*
X114139Y190881D01*
X113992Y191262D01*
X113813Y191650D01*
X113601Y192047D01*
X113356Y192451D01*
X112769Y193283D01*
X117231D01*
X116921Y192863D01*
D02*
G37*
G36*
X98011Y179663D02*
X97733Y179352D01*
X97474Y178997D01*
X97234Y178596D01*
X97013Y178151D01*
X96812Y177661D01*
X96629Y177125D01*
X96466Y176544D01*
X96197Y175248D01*
X96092Y174533D01*
X92033Y178592D01*
X92748Y178697D01*
X94045Y178966D01*
X94625Y179129D01*
X95161Y179312D01*
X95651Y179513D01*
X96096Y179734D01*
X96497Y179974D01*
X96852Y180233D01*
X97163Y180511D01*
X98011Y179663D01*
D02*
G37*
G36*
Y169663D02*
X97733Y169352D01*
X97474Y168997D01*
X97234Y168596D01*
X97013Y168151D01*
X96812Y167660D01*
X96629Y167125D01*
X96466Y166544D01*
X96197Y165248D01*
X96092Y164533D01*
X92033Y168592D01*
X92748Y168697D01*
X94045Y168966D01*
X94625Y169129D01*
X95161Y169312D01*
X95651Y169513D01*
X96096Y169734D01*
X96497Y169974D01*
X96852Y170233D01*
X97163Y170511D01*
X98011Y169663D01*
D02*
G37*
G36*
X336957Y153036D02*
X336771Y153295D01*
X336565Y153527D01*
X336338Y153732D01*
X336092Y153909D01*
X335826Y154059D01*
X335540Y154182D01*
X335234Y154277D01*
X334908Y154345D01*
X334562Y154386D01*
X334196Y154400D01*
Y155600D01*
X334562Y155614D01*
X334908Y155655D01*
X335234Y155723D01*
X335540Y155818D01*
X335826Y155941D01*
X336092Y156091D01*
X336338Y156268D01*
X336565Y156473D01*
X336771Y156705D01*
X336957Y156964D01*
Y153036D01*
D02*
G37*
G36*
X14504Y146675D02*
X14348Y146789D01*
X14164Y146845D01*
X13952D01*
X13712Y146789D01*
X13443Y146675D01*
X13146Y146506D01*
X12821Y146279D01*
X12467Y145997D01*
X11675Y145261D01*
X10261Y146675D01*
X10657Y147085D01*
X11279Y147821D01*
X11506Y148146D01*
X11675Y148443D01*
X11789Y148712D01*
X11845Y148952D01*
Y149164D01*
X11789Y149348D01*
X11675Y149504D01*
X14504Y146675D01*
D02*
G37*
G36*
X343525Y143395D02*
X343483Y143257D01*
Y143098D01*
X343525Y142917D01*
X343610Y142716D01*
X343737Y142493D01*
X343907Y142249D01*
X344119Y141984D01*
X344671Y141390D01*
X343610Y140329D01*
X343302Y140626D01*
X342751Y141093D01*
X342507Y141263D01*
X342284Y141390D01*
X342083Y141475D01*
X341902Y141517D01*
X341743D01*
X341605Y141475D01*
X341489Y141390D01*
X343610Y143511D01*
X343525Y143395D01*
D02*
G37*
G36*
X323118Y140597D02*
X323171Y140220D01*
X323261Y139834D01*
X323386Y139437D01*
X323547Y139029D01*
X323743Y138611D01*
X323975Y138183D01*
X324547Y137296D01*
X324887Y136837D01*
X320113D01*
X320453Y137296D01*
X321025Y138183D01*
X321257Y138611D01*
X321453Y139029D01*
X321614Y139437D01*
X321739Y139834D01*
X321829Y140220D01*
X321882Y140597D01*
X321900Y140963D01*
X323100D01*
X323118Y140597D01*
D02*
G37*
G36*
X212162Y139269D02*
X212478Y139005D01*
X212804Y138767D01*
X213140Y138552D01*
X213486Y138363D01*
X213842Y138199D01*
X214207Y138060D01*
X214583Y137945D01*
X214968Y137856D01*
X215363Y137792D01*
X212209Y134637D01*
X212144Y135032D01*
X212055Y135417D01*
X211940Y135793D01*
X211801Y136158D01*
X211637Y136514D01*
X211448Y136860D01*
X211234Y137196D01*
X210995Y137522D01*
X210731Y137838D01*
X210442Y138144D01*
X211856Y139558D01*
X212162Y139269D01*
D02*
G37*
G36*
X301748Y139124D02*
X302035Y138905D01*
X302351Y138705D01*
X302696Y138521D01*
X303069Y138356D01*
X303471Y138208D01*
X303901Y138077D01*
X304360Y137964D01*
X305363Y137792D01*
X302209Y134637D01*
X302131Y135153D01*
X301923Y136099D01*
X301792Y136529D01*
X301644Y136931D01*
X301479Y137304D01*
X301295Y137648D01*
X301095Y137965D01*
X300876Y138252D01*
X300641Y138511D01*
X301489Y139359D01*
X301748Y139124D01*
D02*
G37*
G36*
X291748D02*
X292035Y138905D01*
X292352Y138705D01*
X292696Y138521D01*
X293069Y138356D01*
X293471Y138208D01*
X293901Y138077D01*
X294360Y137964D01*
X295363Y137792D01*
X292209Y134637D01*
X292131Y135153D01*
X291923Y136099D01*
X291792Y136529D01*
X291644Y136931D01*
X291479Y137304D01*
X291295Y137648D01*
X291095Y137965D01*
X290876Y138252D01*
X290640Y138511D01*
X291489Y139359D01*
X291748Y139124D01*
D02*
G37*
G36*
X69616Y138202D02*
X69325Y137893D01*
X69059Y137573D01*
X68817Y137242D01*
X68601Y136901D01*
X68410Y136550D01*
X68244Y136188D01*
X68103Y135815D01*
X67987Y135431D01*
X67896Y135037D01*
X67830Y134632D01*
X64632Y137830D01*
X65037Y137896D01*
X65431Y137987D01*
X65815Y138103D01*
X66188Y138244D01*
X66550Y138410D01*
X66901Y138601D01*
X67242Y138817D01*
X67573Y139058D01*
X67893Y139325D01*
X68202Y139616D01*
X69616Y138202D01*
D02*
G37*
G36*
X112209Y133800D02*
X112197Y133914D01*
X112161Y134016D01*
X112100Y134106D01*
X112015Y134184D01*
X111906Y134250D01*
X111773Y134304D01*
X111615Y134346D01*
X111433Y134376D01*
X111227Y134394D01*
X110997Y134400D01*
Y135600D01*
X111227Y135606D01*
X111433Y135624D01*
X111615Y135654D01*
X111773Y135696D01*
X111906Y135750D01*
X112015Y135816D01*
X112100Y135894D01*
X112161Y135984D01*
X112197Y136086D01*
X112209Y136200D01*
Y133800D01*
D02*
G37*
G36*
X96110Y136086D02*
X96147Y135984D01*
X96207Y135894D01*
X96292Y135816D01*
X96401Y135750D01*
X96534Y135696D01*
X96692Y135654D01*
X96874Y135624D01*
X97080Y135606D01*
X97310Y135600D01*
Y134400D01*
X97080Y134394D01*
X96874Y134376D01*
X96692Y134346D01*
X96534Y134304D01*
X96401Y134250D01*
X96292Y134184D01*
X96207Y134106D01*
X96147Y134016D01*
X96110Y133914D01*
X96098Y133800D01*
Y136200D01*
X96110Y136086D01*
D02*
G37*
G36*
X93586Y131378D02*
X93484Y131342D01*
X93394Y131282D01*
X93316Y131198D01*
X93250Y131090D01*
X93196Y130958D01*
X93154Y130802D01*
X93124Y130622D01*
X93106Y130418D01*
X93100Y130190D01*
X91900D01*
X91894Y130418D01*
X91876Y130622D01*
X91846Y130802D01*
X91804Y130958D01*
X91750Y131090D01*
X91684Y131198D01*
X91606Y131282D01*
X91516Y131342D01*
X91414Y131378D01*
X91300Y131390D01*
X93700D01*
X93586Y131378D01*
D02*
G37*
G36*
X266921Y132863D02*
X266399Y132047D01*
X266187Y131650D01*
X266008Y131262D01*
X265861Y130881D01*
X265747Y130508D01*
X265665Y130142D01*
X265616Y129785D01*
X265600Y129435D01*
X264400D01*
X264384Y129785D01*
X264335Y130142D01*
X264253Y130508D01*
X264139Y130881D01*
X263992Y131262D01*
X263813Y131650D01*
X263601Y132047D01*
X263356Y132451D01*
X262769Y133283D01*
X267231D01*
X266921Y132863D01*
D02*
G37*
G36*
X256921D02*
X256399Y132047D01*
X256187Y131650D01*
X256008Y131262D01*
X255861Y130881D01*
X255747Y130508D01*
X255665Y130142D01*
X255616Y129785D01*
X255600Y129435D01*
X254400D01*
X254384Y129785D01*
X254335Y130142D01*
X254253Y130508D01*
X254139Y130881D01*
X253992Y131262D01*
X253813Y131650D01*
X253601Y132047D01*
X253356Y132451D01*
X252769Y133283D01*
X257231D01*
X256921Y132863D01*
D02*
G37*
G36*
X186921D02*
X186399Y132047D01*
X186187Y131650D01*
X186008Y131262D01*
X185861Y130881D01*
X185747Y130508D01*
X185665Y130142D01*
X185616Y129785D01*
X185600Y129435D01*
X184400D01*
X184384Y129785D01*
X184335Y130142D01*
X184253Y130508D01*
X184139Y130881D01*
X183992Y131262D01*
X183813Y131650D01*
X183601Y132047D01*
X183356Y132451D01*
X182769Y133283D01*
X187231D01*
X186921Y132863D01*
D02*
G37*
G36*
X126921D02*
X126399Y132047D01*
X126187Y131650D01*
X126008Y131262D01*
X125861Y130881D01*
X125747Y130508D01*
X125665Y130142D01*
X125616Y129785D01*
X125600Y129435D01*
X124400D01*
X124384Y129785D01*
X124335Y130142D01*
X124253Y130508D01*
X124139Y130881D01*
X123992Y131262D01*
X123813Y131650D01*
X123601Y132047D01*
X123356Y132451D01*
X122769Y133283D01*
X127231D01*
X126921Y132863D01*
D02*
G37*
G36*
X84641Y121292D02*
X84395Y121021D01*
X84166Y120717D01*
X83956Y120380D01*
X83763Y120011D01*
X83589Y119609D01*
X83433Y119175D01*
X83294Y118708D01*
X83071Y117676D01*
X82987Y117112D01*
X79611Y120487D01*
X80176Y120571D01*
X81208Y120794D01*
X81675Y120933D01*
X82109Y121089D01*
X82511Y121264D01*
X82880Y121456D01*
X83217Y121666D01*
X83521Y121895D01*
X83792Y122141D01*
X84641Y121292D01*
D02*
G37*
G36*
X265614Y122218D02*
X265657Y121885D01*
X265728Y121548D01*
X265828Y121206D01*
X265957Y120860D01*
X266114Y120509D01*
X266300Y120154D01*
X266514Y119794D01*
X266849Y119316D01*
X266930Y119256D01*
X267654Y118800D01*
X268009Y118614D01*
X268360Y118457D01*
X268706Y118328D01*
X269048Y118228D01*
X269385Y118157D01*
X269718Y118114D01*
X270047Y118100D01*
Y116900D01*
X269718Y116886D01*
X269385Y116843D01*
X269048Y116771D01*
X268706Y116672D01*
X268360Y116543D01*
X268009Y116386D01*
X267654Y116200D01*
X267294Y115986D01*
X266561Y115472D01*
Y119061D01*
X262972D01*
X263244Y119430D01*
X263700Y120154D01*
X263886Y120509D01*
X264043Y120860D01*
X264172Y121206D01*
X264271Y121548D01*
X264343Y121885D01*
X264386Y122218D01*
X264400Y122547D01*
X265600D01*
X265614Y122218D01*
D02*
G37*
G36*
X255614D02*
X255657Y121885D01*
X255729Y121548D01*
X255828Y121206D01*
X255957Y120860D01*
X256114Y120509D01*
X256300Y120154D01*
X256514Y119794D01*
X257028Y119061D01*
X253439D01*
Y115472D01*
X253070Y115744D01*
X252346Y116200D01*
X251991Y116386D01*
X251640Y116543D01*
X251294Y116672D01*
X250952Y116771D01*
X250615Y116843D01*
X250282Y116886D01*
X249953Y116900D01*
Y118100D01*
X250282Y118114D01*
X250615Y118157D01*
X250952Y118228D01*
X251294Y118328D01*
X251640Y118457D01*
X251991Y118614D01*
X252346Y118800D01*
X252706Y119014D01*
X253184Y119349D01*
X253243Y119430D01*
X253700Y120154D01*
X253886Y120509D01*
X254043Y120860D01*
X254171Y121206D01*
X254272Y121548D01*
X254343Y121885D01*
X254386Y122218D01*
X254400Y122547D01*
X255600D01*
X255614Y122218D01*
D02*
G37*
G36*
X278259Y115238D02*
X277831Y115554D01*
X277001Y116086D01*
X276598Y116302D01*
X276204Y116485D01*
X275817Y116634D01*
X275439Y116750D01*
X275070Y116833D01*
X274708Y116883D01*
X274355Y116900D01*
Y118100D01*
X274708Y118117D01*
X275070Y118166D01*
X275439Y118250D01*
X275817Y118366D01*
X276204Y118515D01*
X276598Y118698D01*
X277001Y118914D01*
X277412Y119164D01*
X278259Y119762D01*
Y115238D01*
D02*
G37*
G36*
X242169Y119446D02*
X242999Y118914D01*
X243402Y118698D01*
X243796Y118515D01*
X244183Y118366D01*
X244561Y118250D01*
X244930Y118166D01*
X245292Y118117D01*
X245645Y118100D01*
Y116900D01*
X245292Y116883D01*
X244930Y116833D01*
X244561Y116750D01*
X244183Y116634D01*
X243796Y116485D01*
X243402Y116302D01*
X242999Y116086D01*
X242588Y115837D01*
X241741Y115238D01*
Y119762D01*
X242169Y119446D01*
D02*
G37*
G36*
X112169D02*
X112999Y118914D01*
X113402Y118698D01*
X113796Y118515D01*
X114183Y118366D01*
X114561Y118250D01*
X114930Y118166D01*
X115292Y118117D01*
X115645Y118100D01*
Y116900D01*
X115292Y116883D01*
X114930Y116833D01*
X114561Y116750D01*
X114183Y116634D01*
X113796Y116485D01*
X113402Y116302D01*
X112999Y116086D01*
X112588Y115837D01*
X111741Y115238D01*
Y119762D01*
X112169Y119446D01*
D02*
G37*
G36*
X125618Y123097D02*
X125672Y122721D01*
X125761Y122334D01*
X125886Y121937D01*
X126047Y121529D01*
X126243Y121111D01*
X126475Y120683D01*
X127047Y119796D01*
X127387Y119337D01*
X123163D01*
Y115113D01*
X122704Y115453D01*
X121817Y116025D01*
X121389Y116257D01*
X120971Y116453D01*
X120563Y116614D01*
X120166Y116739D01*
X119780Y116829D01*
X119403Y116882D01*
X119037Y116900D01*
Y118100D01*
X119403Y118118D01*
X119780Y118172D01*
X120166Y118261D01*
X120563Y118386D01*
X120971Y118547D01*
X121389Y118743D01*
X121817Y118975D01*
X122704Y119547D01*
X122847Y119653D01*
X122953Y119796D01*
X123525Y120683D01*
X123757Y121111D01*
X123953Y121529D01*
X124114Y121937D01*
X124239Y122334D01*
X124328Y122721D01*
X124382Y123097D01*
X124400Y123463D01*
X125600D01*
X125618Y123097D01*
D02*
G37*
G36*
X38163Y115113D02*
X37739Y115424D01*
X36902Y115948D01*
X36488Y116161D01*
X36077Y116341D01*
X35669Y116488D01*
X35265Y116603D01*
X34864Y116684D01*
X34466Y116734D01*
X34071Y116750D01*
Y118250D01*
X34466Y118266D01*
X34864Y118315D01*
X35265Y118397D01*
X35669Y118512D01*
X36077Y118659D01*
X36488Y118839D01*
X36902Y119052D01*
X37319Y119297D01*
X37739Y119576D01*
X38163Y119887D01*
Y115113D01*
D02*
G37*
G36*
X145388Y114513D02*
X144824Y114429D01*
X143792Y114206D01*
X143325Y114067D01*
X142891Y113911D01*
X142489Y113736D01*
X142120Y113544D01*
X141783Y113334D01*
X141479Y113105D01*
X141208Y112859D01*
X140359Y113708D01*
X140605Y113979D01*
X140834Y114283D01*
X141044Y114620D01*
X141236Y114989D01*
X141411Y115391D01*
X141567Y115825D01*
X141706Y116292D01*
X141929Y117324D01*
X142013Y117888D01*
X145388Y114513D01*
D02*
G37*
G36*
X82047Y115204D02*
X81475Y114317D01*
X81243Y113889D01*
X81047Y113471D01*
X80886Y113063D01*
X80761Y112666D01*
X80672Y112279D01*
X80618Y111903D01*
X80600Y111537D01*
X79400D01*
X79382Y111903D01*
X79329Y112279D01*
X79239Y112666D01*
X79114Y113063D01*
X78953Y113471D01*
X78757Y113889D01*
X78525Y114317D01*
X77953Y115204D01*
X77613Y115663D01*
X82387D01*
X82047Y115204D01*
D02*
G37*
G36*
X185618Y123097D02*
X185671Y122721D01*
X185761Y122334D01*
X185886Y121937D01*
X186047Y121529D01*
X186243Y121111D01*
X186475Y120683D01*
X187047Y119796D01*
X187387Y119337D01*
X185000Y117500D01*
X187387Y115663D01*
X187047Y115204D01*
X186475Y114317D01*
X186243Y113889D01*
X186047Y113471D01*
X185886Y113063D01*
X185761Y112666D01*
X185671Y112279D01*
X185618Y111903D01*
X185603Y111607D01*
X185606Y111509D01*
X185624Y111303D01*
X185654Y111121D01*
X185696Y110963D01*
X185750Y110830D01*
X185816Y110721D01*
X185894Y110636D01*
X185984Y110576D01*
X186086Y110539D01*
X186200Y110527D01*
X183800D01*
X183914Y110539D01*
X184016Y110576D01*
X184106Y110636D01*
X184184Y110721D01*
X184250Y110830D01*
X184304Y110963D01*
X184346Y111121D01*
X184376Y111303D01*
X184394Y111509D01*
X184397Y111607D01*
X184382Y111903D01*
X184328Y112279D01*
X184239Y112666D01*
X184114Y113063D01*
X183953Y113471D01*
X183757Y113889D01*
X183525Y114317D01*
X182953Y115204D01*
X182613Y115663D01*
X185000Y117500D01*
X182613Y119337D01*
X182953Y119796D01*
X183525Y120683D01*
X183757Y121111D01*
X183953Y121529D01*
X184114Y121937D01*
X184239Y122334D01*
X184328Y122721D01*
X184382Y123097D01*
X184400Y123463D01*
X185600D01*
X185618Y123097D01*
D02*
G37*
G36*
X48568Y102917D02*
X48597Y102856D01*
X48646Y102802D01*
X48714Y102756D01*
X48801Y102717D01*
X48908Y102685D01*
X49033Y102660D01*
X49179Y102642D01*
X49343Y102631D01*
X49528Y102628D01*
Y101428D01*
X49343Y101424D01*
X49033Y101395D01*
X48908Y101371D01*
X48801Y101338D01*
X48714Y101299D01*
X48646Y101253D01*
X48597Y101199D01*
X48568Y101138D01*
X48559Y101071D01*
Y102984D01*
X48568Y102917D01*
D02*
G37*
G36*
X147072Y105172D02*
X146491Y104271D01*
X146254Y103836D01*
X146054Y103413D01*
X145891Y103000D01*
X145764Y102598D01*
X145673Y102207D01*
X145618Y101827D01*
X145605Y101555D01*
X145606Y101509D01*
X145624Y101303D01*
X145654Y101121D01*
X145696Y100963D01*
X145750Y100830D01*
X145816Y100721D01*
X145894Y100636D01*
X145984Y100576D01*
X146086Y100539D01*
X146200Y100527D01*
X143800D01*
X143914Y100539D01*
X144016Y100576D01*
X144106Y100636D01*
X144184Y100721D01*
X144250Y100830D01*
X144304Y100963D01*
X144346Y101121D01*
X144376Y101303D01*
X144394Y101509D01*
X144395Y101555D01*
X144382Y101827D01*
X144327Y102207D01*
X144236Y102598D01*
X144109Y103000D01*
X143946Y103413D01*
X143746Y103836D01*
X143509Y104271D01*
X142928Y105172D01*
X142582Y105639D01*
X147418D01*
X147072Y105172D01*
D02*
G37*
G36*
X84194Y104178D02*
X84485Y103957D01*
X84805Y103755D01*
X85155Y103570D01*
X85534Y103402D01*
X85942Y103253D01*
X86379Y103121D01*
X86846Y103006D01*
X87868Y102831D01*
X84670Y99632D01*
X84590Y100157D01*
X84379Y101121D01*
X84247Y101558D01*
X84097Y101966D01*
X83930Y102345D01*
X83745Y102695D01*
X83543Y103015D01*
X83322Y103306D01*
X83084Y103567D01*
X83933Y104416D01*
X84194Y104178D01*
D02*
G37*
G36*
X28976Y101765D02*
X29254Y100418D01*
X29422Y99815D01*
X29609Y99260D01*
X29816Y98753D01*
X30042Y98293D01*
X30287Y97880D01*
X30552Y97515D01*
X30837Y97197D01*
X29988Y96348D01*
X29671Y96633D01*
X29305Y96898D01*
X28892Y97143D01*
X28432Y97369D01*
X27925Y97576D01*
X27370Y97764D01*
X26767Y97931D01*
X25420Y98209D01*
X24675Y98319D01*
X28866Y102510D01*
X28976Y101765D01*
D02*
G37*
G36*
X90410Y99843D02*
X90621Y98879D01*
X90753Y98442D01*
X90903Y98033D01*
X91070Y97655D01*
X91255Y97305D01*
X91457Y96985D01*
X91678Y96694D01*
X91916Y96433D01*
X91067Y95584D01*
X90806Y95822D01*
X90515Y96043D01*
X90195Y96245D01*
X89845Y96430D01*
X89466Y96597D01*
X89058Y96747D01*
X88621Y96879D01*
X88154Y96994D01*
X87132Y97170D01*
X90330Y100368D01*
X90410Y99843D01*
D02*
G37*
G36*
X187328Y99572D02*
X188229Y98991D01*
X188664Y98754D01*
X189087Y98554D01*
X189500Y98391D01*
X189902Y98264D01*
X190293Y98173D01*
X190673Y98118D01*
X191043Y98100D01*
Y96900D01*
X190673Y96882D01*
X190293Y96827D01*
X189902Y96736D01*
X189500Y96609D01*
X189087Y96446D01*
X188664Y96246D01*
X188229Y96009D01*
X187328Y95428D01*
X186861Y95082D01*
Y99918D01*
X187328Y99572D01*
D02*
G37*
G36*
X339187Y93800D02*
X339175Y93914D01*
X339139Y94016D01*
X339078Y94106D01*
X338994Y94184D01*
X338884Y94250D01*
X338751Y94304D01*
X338594Y94346D01*
X338412Y94376D01*
X338206Y94394D01*
X337975Y94400D01*
Y95600D01*
X338206Y95606D01*
X338412Y95624D01*
X338594Y95654D01*
X338751Y95696D01*
X338884Y95750D01*
X338994Y95816D01*
X339078Y95894D01*
X339139Y95984D01*
X339175Y96086D01*
X339187Y96200D01*
Y93800D01*
D02*
G37*
G36*
X185394Y94474D02*
X184819Y94388D01*
X183771Y94162D01*
X183296Y94022D01*
X182855Y93864D01*
X182448Y93688D01*
X182074Y93494D01*
X181733Y93282D01*
X181425Y93051D01*
X181151Y92803D01*
X180303Y93651D01*
X180551Y93925D01*
X180782Y94233D01*
X180994Y94574D01*
X181188Y94948D01*
X181364Y95355D01*
X181522Y95796D01*
X181662Y96271D01*
X181888Y97319D01*
X181974Y97894D01*
X185394Y94474D01*
D02*
G37*
G36*
X229641Y93792D02*
X229395Y93521D01*
X229166Y93217D01*
X228956Y92880D01*
X228764Y92511D01*
X228589Y92109D01*
X228433Y91675D01*
X228294Y91208D01*
X228071Y90176D01*
X227987Y89612D01*
X224611Y92987D01*
X225176Y93071D01*
X226208Y93294D01*
X226675Y93433D01*
X227109Y93589D01*
X227511Y93764D01*
X227880Y93956D01*
X228217Y94166D01*
X228521Y94395D01*
X228792Y94641D01*
X229641Y93792D01*
D02*
G37*
G36*
X211479Y94395D02*
X211783Y94166D01*
X212120Y93956D01*
X212489Y93764D01*
X212891Y93589D01*
X213325Y93433D01*
X213792Y93294D01*
X214824Y93071D01*
X215388Y92987D01*
X212013Y89612D01*
X211929Y90176D01*
X211706Y91208D01*
X211567Y91675D01*
X211411Y92109D01*
X211237Y92511D01*
X211044Y92880D01*
X210834Y93217D01*
X210605Y93521D01*
X210359Y93792D01*
X211208Y94641D01*
X211479Y94395D01*
D02*
G37*
G36*
X217047Y87704D02*
X216475Y86817D01*
X216243Y86389D01*
X216047Y85971D01*
X215886Y85563D01*
X215761Y85166D01*
X215671Y84780D01*
X215618Y84403D01*
X215600Y84037D01*
X214400D01*
X214382Y84403D01*
X214329Y84780D01*
X214239Y85166D01*
X214114Y85563D01*
X213953Y85971D01*
X213757Y86389D01*
X213525Y86817D01*
X212953Y87704D01*
X212613Y88163D01*
X217387D01*
X217047Y87704D01*
D02*
G37*
G36*
X345505Y86501D02*
X345650Y86343D01*
X345819Y86204D01*
X346014Y86084D01*
X346233Y85982D01*
X346477Y85898D01*
X346745Y85833D01*
X347039Y85787D01*
X347357Y85759D01*
X347700Y85750D01*
Y84250D01*
X347357Y84241D01*
X347039Y84213D01*
X346745Y84167D01*
X346477Y84102D01*
X346233Y84018D01*
X346014Y83916D01*
X345819Y83796D01*
X345650Y83657D01*
X345505Y83499D01*
X345385Y83323D01*
Y86677D01*
X345505Y86501D01*
D02*
G37*
G36*
X95916Y87603D02*
X95977Y87195D01*
X96080Y86772D01*
X96224Y86334D01*
X96408Y85882D01*
X96634Y85414D01*
X96901Y84933D01*
X97557Y83925D01*
X97947Y83400D01*
X93254D01*
Y78707D01*
X92728Y79096D01*
X91721Y79753D01*
X91239Y80020D01*
X90772Y80245D01*
X90320Y80430D01*
X89882Y80574D01*
X89459Y80676D01*
X89050Y80738D01*
X88657Y80758D01*
Y81958D01*
X89050Y81979D01*
X89459Y82040D01*
X89882Y82143D01*
X90320Y82287D01*
X90772Y82471D01*
X91239Y82697D01*
X91721Y82964D01*
X92728Y83620D01*
X92903Y83750D01*
X93033Y83925D01*
X93690Y84933D01*
X93957Y85414D01*
X94182Y85882D01*
X94367Y86334D01*
X94511Y86772D01*
X94613Y87195D01*
X94675Y87603D01*
X94695Y87997D01*
X95895D01*
X95916Y87603D01*
D02*
G37*
G36*
X72272Y83620D02*
X73279Y82964D01*
X73761Y82697D01*
X74228Y82471D01*
X74680Y82287D01*
X75118Y82143D01*
X75541Y82040D01*
X75950Y81979D01*
X76343Y81958D01*
Y80758D01*
X75950Y80738D01*
X75541Y80676D01*
X75118Y80574D01*
X74680Y80430D01*
X74228Y80245D01*
X73761Y80020D01*
X73279Y79753D01*
X72272Y79096D01*
X71746Y78707D01*
Y84010D01*
X72272Y83620D01*
D02*
G37*
G36*
X197170Y77363D02*
X197158Y77477D01*
X197121Y77579D01*
X197061Y77669D01*
X196976Y77747D01*
X196867Y77813D01*
X196733Y77867D01*
X196576Y77909D01*
X196394Y77939D01*
X196188Y77957D01*
X195958Y77963D01*
Y79163D01*
X196188Y79169D01*
X196394Y79187D01*
X196576Y79217D01*
X196733Y79259D01*
X196867Y79313D01*
X196976Y79379D01*
X197061Y79457D01*
X197121Y79547D01*
X197158Y79649D01*
X197170Y79763D01*
Y77363D01*
D02*
G37*
G36*
X187047Y85204D02*
X186475Y84317D01*
X186243Y83889D01*
X186047Y83471D01*
X185886Y83064D01*
X185761Y82666D01*
X185722Y82500D01*
X185761Y82334D01*
X185886Y81937D01*
X186047Y81529D01*
X186243Y81111D01*
X186475Y80683D01*
X187047Y79796D01*
X187151Y79656D01*
X187290Y79553D01*
X188174Y78979D01*
X188595Y78746D01*
X189002Y78549D01*
X189395Y78387D01*
X189774Y78262D01*
X190139Y78172D01*
X190489Y78118D01*
X190826Y78100D01*
Y76900D01*
X190489Y76882D01*
X190139Y76828D01*
X189774Y76739D01*
X189395Y76613D01*
X189002Y76451D01*
X188595Y76254D01*
X188174Y76021D01*
X187290Y75447D01*
X187151Y75344D01*
X187047Y75204D01*
X186475Y74317D01*
X186243Y73889D01*
X186047Y73471D01*
X185886Y73063D01*
X185761Y72666D01*
X185671Y72280D01*
X185618Y71903D01*
X185600Y71537D01*
X184400D01*
X184382Y71903D01*
X184328Y72280D01*
X184239Y72666D01*
X184114Y73063D01*
X183953Y73471D01*
X183757Y73889D01*
X183525Y74317D01*
X182953Y75204D01*
X182613Y75663D01*
X186827D01*
Y79337D01*
X182613D01*
X182953Y79796D01*
X183525Y80683D01*
X183757Y81111D01*
X183953Y81529D01*
X184114Y81937D01*
X184239Y82334D01*
X184278Y82500D01*
X184239Y82666D01*
X184114Y83064D01*
X183953Y83471D01*
X183757Y83889D01*
X183525Y84317D01*
X182953Y85204D01*
X182613Y85663D01*
X187387D01*
X187047Y85204D01*
D02*
G37*
G36*
X147047Y75204D02*
X146475Y74317D01*
X146243Y73889D01*
X146047Y73471D01*
X145886Y73063D01*
X145761Y72666D01*
X145671Y72280D01*
X145618Y71903D01*
X145600Y71537D01*
X144400D01*
X144382Y71903D01*
X144328Y72280D01*
X144239Y72666D01*
X144114Y73063D01*
X143953Y73471D01*
X143757Y73889D01*
X143525Y74317D01*
X142953Y75204D01*
X142613Y75663D01*
X147387D01*
X147047Y75204D01*
D02*
G37*
G36*
X304499Y65176D02*
X303873Y65081D01*
X302722Y64826D01*
X302198Y64666D01*
X301708Y64484D01*
X301253Y64281D01*
X300831Y64055D01*
X300444Y63808D01*
X300091Y63539D01*
X299772Y63248D01*
X298711Y64309D01*
X299002Y64627D01*
X299271Y64981D01*
X299519Y65368D01*
X299744Y65789D01*
X299948Y66245D01*
X300130Y66735D01*
X300290Y67259D01*
X300428Y67817D01*
X300639Y69036D01*
X304499Y65176D01*
D02*
G37*
G36*
X201916Y66067D02*
X201678Y65806D01*
X201458Y65515D01*
X201255Y65195D01*
X201070Y64845D01*
X200903Y64466D01*
X200753Y64058D01*
X200621Y63621D01*
X200506Y63154D01*
X200330Y62132D01*
X197132Y65330D01*
X197658Y65410D01*
X198621Y65621D01*
X199058Y65753D01*
X199466Y65903D01*
X199845Y66070D01*
X200195Y66255D01*
X200515Y66457D01*
X200806Y66678D01*
X201067Y66916D01*
X201916Y66067D01*
D02*
G37*
G36*
X147385Y63472D02*
X147828Y63096D01*
X148023Y62959D01*
X148202Y62856D01*
X148363Y62787D01*
X148507Y62752D01*
X148633Y62751D01*
X148743Y62783D01*
X148835Y62850D01*
X147150Y61165D01*
X147217Y61257D01*
X147249Y61367D01*
X147248Y61493D01*
X147213Y61637D01*
X147144Y61798D01*
X147041Y61977D01*
X146904Y62172D01*
X146733Y62385D01*
X146290Y62862D01*
X147138Y63710D01*
X147385Y63472D01*
D02*
G37*
G36*
X126916Y61067D02*
X126678Y60806D01*
X126458Y60515D01*
X126255Y60195D01*
X126070Y59845D01*
X125902Y59466D01*
X125753Y59058D01*
X125621Y58621D01*
X125506Y58154D01*
X125330Y57132D01*
X122132Y60330D01*
X122658Y60410D01*
X123621Y60621D01*
X124058Y60753D01*
X124466Y60903D01*
X124845Y61070D01*
X125195Y61255D01*
X125515Y61458D01*
X125806Y61678D01*
X126067Y61916D01*
X126916Y61067D01*
D02*
G37*
G36*
X109670Y56000D02*
X109654Y56142D01*
X109609Y56270D01*
X109534Y56383D01*
X109428Y56480D01*
X109292Y56563D01*
X109125Y56630D01*
X108929Y56682D01*
X108702Y56720D01*
X108445Y56743D01*
X108158Y56750D01*
Y58250D01*
X108445Y58258D01*
X108702Y58280D01*
X108929Y58318D01*
X109125Y58370D01*
X109292Y58438D01*
X109428Y58520D01*
X109534Y58618D01*
X109609Y58730D01*
X109654Y58858D01*
X109670Y59000D01*
Y56000D01*
D02*
G37*
G36*
X200410Y52342D02*
X200621Y51379D01*
X200753Y50942D01*
X200903Y50534D01*
X201070Y50155D01*
X201255Y49805D01*
X201458Y49485D01*
X201678Y49194D01*
X201916Y48933D01*
X201067Y48084D01*
X200806Y48322D01*
X200515Y48542D01*
X200195Y48745D01*
X199845Y48930D01*
X199466Y49097D01*
X199058Y49247D01*
X198621Y49379D01*
X198154Y49494D01*
X197475Y49610D01*
X197343Y49590D01*
X196379Y49379D01*
X195942Y49247D01*
X195534Y49097D01*
X195155Y48930D01*
X194805Y48745D01*
X194485Y48542D01*
X194194Y48322D01*
X193933Y48084D01*
X193084Y48933D01*
X193322Y49194D01*
X193543Y49485D01*
X193745Y49805D01*
X193930Y50155D01*
X194097Y50534D01*
X194247Y50942D01*
X194379Y51379D01*
X194494Y51846D01*
X194669Y52868D01*
X197500Y50038D01*
X200330Y52868D01*
X200410Y52342D01*
D02*
G37*
G36*
X219723Y53662D02*
X219455Y53371D01*
X219208Y53055D01*
X218983Y52714D01*
X218778Y52347D01*
X218594Y51954D01*
X218430Y51537D01*
X218288Y51094D01*
X218167Y50625D01*
X218066Y50131D01*
X217987Y49611D01*
X214612Y52987D01*
X215131Y53066D01*
X216093Y53288D01*
X216537Y53430D01*
X216954Y53594D01*
X217347Y53778D01*
X217714Y53983D01*
X218055Y54208D01*
X218371Y54455D01*
X218662Y54723D01*
X219723Y53662D01*
D02*
G37*
G36*
X95558Y49944D02*
X95655Y49514D01*
X95777Y49098D01*
X95925Y48695D01*
X96098Y48307D01*
X96297Y47931D01*
X96521Y47570D01*
X96770Y47222D01*
X97045Y46889D01*
X97346Y46569D01*
X95931Y45154D01*
X95611Y45455D01*
X95278Y45730D01*
X94930Y45979D01*
X94569Y46203D01*
X94194Y46402D01*
X93805Y46575D01*
X93402Y46723D01*
X92986Y46845D01*
X92555Y46942D01*
X92500Y46951D01*
X92444Y46942D01*
X92014Y46845D01*
X91598Y46723D01*
X91195Y46575D01*
X90806Y46402D01*
X90431Y46203D01*
X90070Y45979D01*
X89722Y45730D01*
X89389Y45455D01*
X89069Y45154D01*
X87654Y46569D01*
X87955Y46889D01*
X88230Y47222D01*
X88479Y47570D01*
X88703Y47931D01*
X88902Y48307D01*
X89075Y48695D01*
X89223Y49098D01*
X89345Y49514D01*
X89442Y49944D01*
X89513Y50388D01*
X92500Y47402D01*
X95487Y50388D01*
X95558Y49944D01*
D02*
G37*
G36*
X225389Y47013D02*
X224824Y46929D01*
X223792Y46706D01*
X223325Y46567D01*
X222891Y46411D01*
X222489Y46237D01*
X222120Y46044D01*
X221783Y45834D01*
X221479Y45605D01*
X221208Y45359D01*
X220359Y46208D01*
X220605Y46479D01*
X220834Y46783D01*
X221044Y47120D01*
X221236Y47489D01*
X221411Y47891D01*
X221567Y48325D01*
X221706Y48792D01*
X221929Y49824D01*
X222013Y50388D01*
X225389Y47013D01*
D02*
G37*
G36*
X30837Y49772D02*
X30552Y49454D01*
X30287Y49089D01*
X30042Y48676D01*
X29816Y48216D01*
X29609Y47708D01*
X29422Y47153D01*
X29254Y46551D01*
X28976Y45203D01*
X28866Y44458D01*
X24675Y48650D01*
X25420Y48759D01*
X26767Y49037D01*
X27370Y49205D01*
X27925Y49392D01*
X28432Y49599D01*
X28892Y49825D01*
X29305Y50071D01*
X29671Y50336D01*
X29988Y50620D01*
X30837Y49772D01*
D02*
G37*
G36*
X161860Y46011D02*
X161624Y45752D01*
X161405Y45465D01*
X161205Y45149D01*
X161021Y44804D01*
X160856Y44431D01*
X160708Y44029D01*
X160577Y43599D01*
X160465Y43140D01*
X160292Y42137D01*
X157137Y45291D01*
X157653Y45369D01*
X158599Y45577D01*
X159029Y45708D01*
X159431Y45856D01*
X159804Y46021D01*
X160149Y46205D01*
X160465Y46405D01*
X160752Y46624D01*
X161011Y46859D01*
X161860Y46011D01*
D02*
G37*
G36*
X171860Y46011D02*
X171624Y45752D01*
X171405Y45465D01*
X171205Y45149D01*
X171021Y44804D01*
X170856Y44431D01*
X170708Y44029D01*
X170577Y43599D01*
X170465Y43140D01*
X170291Y42137D01*
X167137Y45291D01*
X167653Y45369D01*
X168599Y45577D01*
X169029Y45708D01*
X169431Y45856D01*
X169804Y46021D01*
X170149Y46205D01*
X170465Y46405D01*
X170752Y46624D01*
X171011Y46859D01*
X171860Y46011D01*
D02*
G37*
G36*
X150369Y42347D02*
X150577Y41401D01*
X150708Y40971D01*
X150856Y40569D01*
X151021Y40196D01*
X151205Y39851D01*
X151405Y39535D01*
X151624Y39248D01*
X151859Y38989D01*
X151011Y38140D01*
X150752Y38376D01*
X150464Y38595D01*
X150148Y38795D01*
X149804Y38979D01*
X149431Y39144D01*
X149029Y39292D01*
X148599Y39423D01*
X148140Y39535D01*
X147137Y39709D01*
X150292Y42863D01*
X150369Y42347D01*
D02*
G37*
G36*
X137863Y39709D02*
X137468Y39644D01*
X137083Y39555D01*
X136707Y39440D01*
X136342Y39301D01*
X135986Y39137D01*
X135640Y38948D01*
X135304Y38734D01*
X134978Y38495D01*
X134662Y38231D01*
X134356Y37942D01*
X132942Y39356D01*
X133231Y39662D01*
X133495Y39978D01*
X133733Y40304D01*
X133948Y40640D01*
X134137Y40986D01*
X134301Y41342D01*
X134440Y41707D01*
X134555Y42083D01*
X134644Y42468D01*
X134708Y42863D01*
X137863Y39709D01*
D02*
G37*
G36*
X119574Y34522D02*
X119917Y34308D01*
X120270Y34118D01*
X120634Y33954D01*
X121007Y33815D01*
X121391Y33702D01*
X121785Y33614D01*
X122189Y33551D01*
X122603Y33513D01*
X123028Y33500D01*
Y31500D01*
X122603Y31487D01*
X122189Y31449D01*
X121785Y31386D01*
X121391Y31298D01*
X121007Y31185D01*
X120634Y31046D01*
X120270Y30882D01*
X119917Y30692D01*
X119574Y30478D01*
X119241Y30238D01*
Y34762D01*
X119574Y34522D01*
D02*
G37*
G36*
X115759Y30238D02*
X115426Y30478D01*
X115083Y30692D01*
X114730Y30882D01*
X114366Y31046D01*
X113993Y31185D01*
X113609Y31298D01*
X113215Y31386D01*
X112811Y31449D01*
X112397Y31487D01*
X111972Y31500D01*
Y33500D01*
X112397Y33513D01*
X112811Y33551D01*
X113215Y33614D01*
X113609Y33702D01*
X113993Y33815D01*
X114366Y33954D01*
X114730Y34118D01*
X115083Y34308D01*
X115426Y34522D01*
X115759Y34762D01*
Y30238D01*
D02*
G37*
G36*
X119455Y24617D02*
X119700Y24487D01*
X119975Y24373D01*
X120283Y24274D01*
X120621Y24190D01*
X120991Y24122D01*
X121824Y24031D01*
X122288Y24008D01*
X122783Y24000D01*
Y21000D01*
X122288Y20992D01*
X121392Y20931D01*
X120991Y20878D01*
X120283Y20726D01*
X119975Y20627D01*
X119700Y20513D01*
X119455Y20383D01*
X119241Y20238D01*
Y24762D01*
X119455Y24617D01*
D02*
G37*
G36*
X172236Y15114D02*
X171894Y14762D01*
X171065Y13779D01*
X170855Y13475D01*
X170677Y13183D01*
X170531Y12904D01*
X170419Y12636D01*
X170339Y12381D01*
X170291Y12137D01*
X167500Y14928D01*
X164708Y12137D01*
X164661Y12381D01*
X164581Y12636D01*
X164469Y12904D01*
X164323Y13183D01*
X164145Y13475D01*
X163935Y13779D01*
X163415Y14422D01*
X163106Y14762D01*
X162765Y15114D01*
X164886Y17235D01*
X165238Y16894D01*
X166221Y16066D01*
X166525Y15855D01*
X166817Y15677D01*
X167096Y15531D01*
X167364Y15419D01*
X167500Y15376D01*
X167636Y15419D01*
X167904Y15531D01*
X168183Y15677D01*
X168475Y15855D01*
X168779Y16066D01*
X169422Y16585D01*
X169762Y16894D01*
X170114Y17235D01*
X172236Y15114D01*
D02*
G37*
G36*
X140303Y13586D02*
X140339Y13484D01*
X140400Y13394D01*
X140485Y13316D01*
X140594Y13250D01*
X140727Y13196D01*
X140885Y13154D01*
X141067Y13124D01*
X141273Y13106D01*
X141503Y13100D01*
Y11900D01*
X141273Y11894D01*
X141067Y11876D01*
X140885Y11846D01*
X140727Y11804D01*
X140594Y11750D01*
X140485Y11684D01*
X140400Y11606D01*
X140339Y11516D01*
X140303Y11414D01*
X140291Y11300D01*
Y13700D01*
X140303Y13586D01*
D02*
G37*
G36*
X245567Y14581D02*
X245666Y13542D01*
X245752Y13060D01*
X245863Y12603D01*
X245998Y12171D01*
X246158Y11764D01*
X246342Y11382D01*
X246551Y11025D01*
X246785Y10693D01*
X241325D01*
X241559Y11025D01*
X241768Y11382D01*
X241953Y11764D01*
X242112Y12171D01*
X242248Y12603D01*
X242358Y13060D01*
X242444Y13542D01*
X242506Y14049D01*
X242555Y15138D01*
X245555D01*
X245567Y14581D01*
D02*
G37*
G36*
X145783Y10269D02*
X145363Y10579D01*
X144547Y11101D01*
X144150Y11313D01*
X143762Y11492D01*
X143381Y11639D01*
X143008Y11753D01*
X142642Y11835D01*
X142285Y11884D01*
X141935Y11900D01*
Y13100D01*
X142285Y13116D01*
X142642Y13165D01*
X143008Y13247D01*
X143381Y13361D01*
X143762Y13508D01*
X144150Y13687D01*
X144547Y13899D01*
X144951Y14144D01*
X145783Y14731D01*
Y10269D01*
D02*
G37*
G36*
X157863Y9708D02*
X157347Y9631D01*
X156401Y9423D01*
X155971Y9292D01*
X155569Y9144D01*
X155196Y8979D01*
X154851Y8795D01*
X154535Y8595D01*
X154248Y8376D01*
X153989Y8140D01*
X153140Y8989D01*
X153376Y9248D01*
X153595Y9535D01*
X153795Y9851D01*
X153979Y10196D01*
X154144Y10569D01*
X154292Y10971D01*
X154423Y11401D01*
X154535Y11860D01*
X154709Y12863D01*
X157863Y9708D01*
D02*
G37*
G36*
X90663Y7613D02*
X90204Y7953D01*
X89317Y8525D01*
X88889Y8757D01*
X88471Y8953D01*
X88064Y9114D01*
X87666Y9239D01*
X87279Y9329D01*
X86903Y9382D01*
X86537Y9400D01*
Y10600D01*
X86903Y10618D01*
X87279Y10672D01*
X87666Y10761D01*
X88064Y10886D01*
X88471Y11047D01*
X88889Y11243D01*
X89317Y11475D01*
X90204Y12047D01*
X90663Y12387D01*
Y7613D01*
D02*
G37*
G36*
X74796Y12047D02*
X75683Y11475D01*
X76111Y11243D01*
X76529Y11047D01*
X76937Y10886D01*
X77334Y10761D01*
X77720Y10672D01*
X78097Y10618D01*
X78463Y10600D01*
Y9400D01*
X78097Y9382D01*
X77720Y9329D01*
X77334Y9239D01*
X76937Y9114D01*
X76529Y8953D01*
X76111Y8757D01*
X75683Y8525D01*
X74796Y7953D01*
X74337Y7613D01*
Y12387D01*
X74796Y12047D01*
D02*
G37*
G36*
X95568Y9820D02*
X95771Y8812D01*
X95893Y8362D01*
X96030Y7948D01*
X96180Y7571D01*
X96345Y7230D01*
X96524Y6925D01*
X96717Y6657D01*
X96924Y6424D01*
X96076Y5576D01*
X95843Y5783D01*
X95575Y5976D01*
X95270Y6155D01*
X94929Y6320D01*
X94552Y6470D01*
X94138Y6607D01*
X93688Y6729D01*
X92680Y6932D01*
X92121Y7012D01*
X95488Y10379D01*
X95568Y9820D01*
D02*
G37*
D44*
X167500Y12500D02*
X189800Y34800D01*
X228300D02*
X244055Y19045D01*
X189800Y34800D02*
X228300D01*
X244055Y8592D02*
Y19045D01*
X117500Y22500D02*
X157500D01*
X167500Y12500D01*
D45*
X17500Y104006D02*
X23794Y110300D01*
X50300D02*
X77500Y137500D01*
X23794Y110300D02*
X50300D01*
X296600Y186600D02*
X305000Y195000D01*
X280000Y192000D02*
X285400Y186600D01*
X296600D01*
X185000Y225000D02*
X192900Y217100D01*
X222900D02*
X245000Y195000D01*
X192900Y217100D02*
X222900D01*
X219200Y200800D02*
X225000Y195000D01*
X165000Y214300D02*
X178500Y200800D01*
X219200D01*
X225800Y204200D02*
X235000Y195000D01*
X175000Y215800D02*
X186600Y204200D01*
X225800D01*
X175000Y215800D02*
Y225000D01*
X165000Y214300D02*
Y225000D01*
X96500Y225500D02*
X104500Y217500D01*
X132500D01*
X155000Y195000D01*
X25157Y44941D02*
X32500Y52284D01*
X17500Y98500D02*
X32500Y83500D01*
Y52284D02*
Y83500D01*
X77500Y137500D02*
Y182000D01*
X82000Y186500D01*
X55912Y101879D02*
X85000Y130967D01*
Y178000D02*
X90500Y183500D01*
X85000Y130967D02*
Y178000D01*
X218000Y43000D02*
X225000Y50000D01*
X197500Y52500D02*
X207000Y43000D01*
X218000D01*
X225000Y90000D02*
X230000Y95000D01*
X342500D01*
X207500Y97500D02*
X215000Y90000D01*
X185000Y97500D02*
X207500D01*
X215000Y80000D02*
Y90000D01*
X197500Y62500D02*
X215000Y80000D01*
X255000Y117500D02*
Y135000D01*
X265000Y117500D02*
Y135000D01*
Y117500D02*
X280000D01*
X240000D02*
X255000D01*
X17500Y98500D02*
Y104006D01*
X49528Y102028D02*
X81000Y133500D01*
X44842Y102028D02*
X49528D01*
X81000Y133500D02*
Y179500D01*
X34685Y92500D02*
X52005D01*
X25157Y102028D02*
X34685Y92500D01*
X137500Y12500D02*
X147500D01*
X151000Y6000D02*
X157500Y12500D01*
X96500Y6000D02*
X151000D01*
X92500Y10000D02*
X96500Y6000D01*
X72500Y10000D02*
X92500D01*
X334196Y155000D02*
X340000D01*
X322500Y143304D02*
X334196Y155000D01*
X322500Y135000D02*
Y143304D01*
X147500Y42500D02*
X155000Y35000D01*
X180000D01*
X166705Y51705D02*
X170646D01*
X178171Y59230D02*
Y90671D01*
X170646Y51705D02*
X178171Y59230D01*
X180000Y35000D02*
X197500Y52500D01*
X185000Y77500D02*
X190826D01*
X191889Y78563D02*
X200000D01*
X190826Y77500D02*
X191889Y78563D01*
X167500Y42500D02*
X185000Y60000D01*
X167500Y42500D02*
X167500D01*
X185000Y60000D02*
Y77500D01*
X157500Y42500D02*
X166705Y51705D01*
X178171Y90671D02*
X185000Y97500D01*
X145000Y65000D02*
Y77500D01*
Y65000D02*
X150000Y60000D01*
X145000Y97500D02*
Y107500D01*
X133720Y68720D02*
Y106220D01*
X145000Y117500D01*
X122500Y57500D02*
X133720Y68720D01*
X110000Y117500D02*
X125000D01*
Y135000D01*
X80000Y117500D02*
X92500Y130000D01*
Y135000D01*
X115000D01*
X95295Y81358D02*
Y92205D01*
X87500Y100000D02*
X95295Y92205D01*
X87500Y100000D02*
Y100000D01*
X80000Y107500D02*
X87500Y100000D01*
X80000Y107500D02*
Y117500D01*
X55912Y96407D02*
Y101879D01*
X52005Y92500D02*
X55912Y96407D01*
X82000Y186500D02*
Y218000D01*
X89500Y225500D01*
X81000Y179500D02*
X86000Y184500D01*
Y216000D01*
X90500Y183500D02*
X96000D01*
X260000Y180000D02*
X305000Y135000D01*
X260000Y180000D02*
Y210000D01*
X115000Y187500D02*
Y195000D01*
X92500Y165000D02*
X115000Y187500D01*
X107500Y198000D02*
X110500Y201000D01*
X119000D02*
X125000Y195000D01*
X110500Y201000D02*
X119000D01*
X102000Y199506D02*
X107494Y205000D01*
X125000D02*
X135000Y195000D01*
X107494Y205000D02*
X125000D01*
X125388Y214612D02*
X145000Y195000D01*
X101388Y214612D02*
X125388D01*
X95500Y220500D02*
X101388Y214612D01*
X107500Y190000D02*
Y198000D01*
X92500Y175000D02*
X107500Y190000D01*
X102000Y189500D02*
Y199506D01*
X96000Y183500D02*
X102000Y189500D01*
X89500Y225500D02*
X96500D01*
X90500Y220500D02*
X95500D01*
X86000Y216000D02*
X90500Y220500D01*
X155000Y210000D02*
Y225000D01*
X280000Y192000D02*
Y200000D01*
X255000Y225000D02*
X280000Y200000D01*
X245000Y225000D02*
X260000Y210000D01*
X235000Y225000D02*
X250000Y210000D01*
Y180000D02*
Y210000D01*
X265000Y225000D02*
X295000Y195000D01*
X185000Y107500D02*
Y135000D01*
X69705Y81358D02*
X95295D01*
X185000Y77500D02*
Y87500D01*
X250000Y180000D02*
X295000Y135000D01*
D46*
X145000Y211400D02*
X154000Y202400D01*
X145000Y211400D02*
Y225000D01*
X76500Y214500D02*
Y219000D01*
Y191000D02*
Y214500D01*
X73000Y187500D02*
X76500Y191000D01*
X3500Y45500D02*
X13500Y35500D01*
X78000D02*
X92500Y50000D01*
X13500Y35500D02*
X78000D01*
X73000Y143000D02*
Y187500D01*
X65000Y135000D02*
X73000Y143000D01*
X3500Y138500D02*
X15000Y150000D01*
X3500Y45500D02*
Y138500D01*
X110000Y32500D02*
X117500D01*
X127500D01*
X137500Y42500D01*
X92500Y50000D02*
X110000Y32500D01*
X195000Y155000D02*
Y195000D01*
Y155000D02*
X215000Y135000D01*
D47*
X351000Y88300D02*
Y134000D01*
X342500Y85000D02*
X347700D01*
X351000Y88300D01*
X340000Y145000D02*
X351000Y134000D01*
X72000Y39000D02*
X90500Y57500D01*
X19500Y39000D02*
X72000D01*
X15000Y43500D02*
X19500Y39000D01*
X11500Y108500D02*
X20500Y117500D01*
X11500Y94500D02*
X24500Y81500D01*
X11500Y94500D02*
Y108500D01*
X15000Y43500D02*
Y51000D01*
X24500Y60500D01*
Y81500D01*
X294676Y59213D02*
X304055Y68592D01*
X224213Y59213D02*
X294676D01*
X215000Y50000D02*
X224213Y59213D01*
X20500Y117500D02*
X40000D01*
X90500Y57500D02*
X112500D01*
D48*
X342500Y95000D02*
D03*
X15000Y150000D02*
D03*
D49*
X342500Y85000D02*
D03*
Y75000D02*
D03*
X15000Y140000D02*
D03*
Y130000D02*
D03*
D50*
X13347Y72500D02*
D03*
X56653D02*
D03*
D51*
X44842Y44941D02*
D03*
X25157D02*
D03*
Y102028D02*
D03*
X35000D02*
D03*
D52*
X44842D02*
D03*
D53*
X115000Y195000D02*
D03*
X125000D02*
D03*
X135000D02*
D03*
X145000D02*
D03*
X155000D02*
D03*
X165000D02*
D03*
X175000D02*
D03*
X185000D02*
D03*
X195000D02*
D03*
X205000D02*
D03*
X215000D02*
D03*
X225000D02*
D03*
X235000D02*
D03*
X245000D02*
D03*
X255000D02*
D03*
X265000D02*
D03*
X275000D02*
D03*
X285000D02*
D03*
X295000D02*
D03*
X305000D02*
D03*
Y135000D02*
D03*
X295000D02*
D03*
X285000D02*
D03*
X275000D02*
D03*
X265000D02*
D03*
X255000D02*
D03*
X245000D02*
D03*
X235000D02*
D03*
X225000D02*
D03*
X215000D02*
D03*
X205000D02*
D03*
X195000D02*
D03*
X185000D02*
D03*
X175000D02*
D03*
X165000D02*
D03*
X155000D02*
D03*
X145000D02*
D03*
X135000D02*
D03*
X125000D02*
D03*
X147500Y12500D02*
D03*
X157500D02*
D03*
X167500D02*
D03*
X137500Y42500D02*
D03*
X147500D02*
D03*
X157500D02*
D03*
X167500D02*
D03*
D54*
X115000Y135000D02*
D03*
X137500Y12500D02*
D03*
D55*
X155000Y225000D02*
D03*
X195000D02*
D03*
X235000D02*
D03*
X275000D02*
D03*
X145000D02*
D03*
X175000D02*
D03*
X165000D02*
D03*
X215000D02*
D03*
X205000D02*
D03*
X245000D02*
D03*
X225000D02*
D03*
X265000D02*
D03*
X255000D02*
D03*
X185000D02*
D03*
X285000D02*
D03*
X340000Y165000D02*
D03*
Y155000D02*
D03*
X92500Y175000D02*
D03*
Y165000D02*
D03*
Y155000D02*
D03*
Y145000D02*
D03*
Y212500D02*
D03*
Y202500D02*
D03*
D56*
X135000Y225000D02*
D03*
D57*
X155000Y210000D02*
D03*
X115000D02*
D03*
X322500Y175000D02*
D03*
Y135000D02*
D03*
X215000Y90000D02*
D03*
Y50000D02*
D03*
X225000Y90000D02*
D03*
Y50000D02*
D03*
X185000Y77500D02*
D03*
X145000D02*
D03*
X185000Y87500D02*
D03*
X145000D02*
D03*
Y117500D02*
D03*
X185000D02*
D03*
X92500Y50000D02*
D03*
Y10000D02*
D03*
X72500D02*
D03*
Y50000D02*
D03*
X125000Y117500D02*
D03*
Y77500D02*
D03*
X40000Y117500D02*
D03*
X80000D02*
D03*
D58*
X195000Y210000D02*
D03*
X205000D02*
D03*
X290000Y117500D02*
D03*
X280000D02*
D03*
X230000D02*
D03*
X240000D02*
D03*
X197500Y52500D02*
D03*
Y62500D02*
D03*
X200000Y86437D02*
D03*
X117500Y22500D02*
D03*
Y32500D02*
D03*
X122500Y57500D02*
D03*
X77500Y100000D02*
D03*
X87500D02*
D03*
X110000Y117500D02*
D03*
X100000D02*
D03*
X65000Y135000D02*
D03*
Y145000D02*
D03*
X45000Y143937D02*
D03*
X27500Y177500D02*
D03*
X17500D02*
D03*
D59*
X340000Y145000D02*
D03*
X92500Y135000D02*
D03*
Y192500D02*
D03*
D60*
X255000Y117500D02*
D03*
X265000D02*
D03*
D61*
X304055Y8592D02*
D03*
Y68592D02*
D03*
X284055Y8592D02*
D03*
Y68592D02*
D03*
X264055Y8592D02*
D03*
Y68592D02*
D03*
X244055Y8592D02*
D03*
Y68592D02*
D03*
D62*
X245000Y85000D02*
D03*
X265000D02*
D03*
X305000D02*
D03*
X325000D02*
D03*
X195000Y22500D02*
D03*
D63*
X215000D02*
D03*
D64*
X200000Y78563D02*
D03*
X45000Y136063D02*
D03*
D65*
X145000Y97500D02*
D03*
X185000Y107500D02*
D03*
X50610Y172500D02*
D03*
D66*
X185000Y97500D02*
D03*
X145000Y107500D02*
D03*
X64390Y172500D02*
D03*
D67*
X150000Y60000D02*
D03*
D68*
X160000D02*
D03*
X170000D02*
D03*
D69*
X112500Y57500D02*
D03*
D70*
X95295Y63642D02*
D03*
X69705D02*
D03*
Y81358D02*
D03*
X95295D02*
D03*
D71*
X62500Y197500D02*
D03*
Y221319D02*
D03*
D72*
X43996Y209311D02*
D03*
D73*
X334646Y19685D02*
D03*
Y216535D02*
D03*
X19685D02*
D03*
Y19685D02*
D03*
D74*
X154000Y202400D02*
D03*
X76500Y210000D02*
D03*
Y214500D02*
D03*
Y219000D02*
D03*
M02*
